<?xml version="1.0" encoding="UTF-8" standalone="no"?>
<!-- Created with Inkscape (http://www.inkscape.org/) -->

<svg
   width="1920"
   height="1080"
   viewBox="0 0 508 285.75"
   version="1.1"
   id="svg5"
   inkscape:version="1.2.2 (b0a8486541, 2022-12-01)"
   sodipodi:docname="build_recipe_generator.svg"
   xmlns:inkscape="http://www.inkscape.org/namespaces/inkscape"
   xmlns:sodipodi="http://sodipodi.sourceforge.net/DTD/sodipodi-0.dtd"
   xmlns:xlink="http://www.w3.org/1999/xlink"
   xmlns="http://www.w3.org/2000/svg"
   xmlns:svg="http://www.w3.org/2000/svg"
   xmlns:sketch="http://www.bohemiancoding.com/sketch/ns">
  <sodipodi:namedview
     id="namedview7"
     pagecolor="#ffffff"
     bordercolor="#666666"
     borderopacity="1.0"
     inkscape:pageshadow="2"
     inkscape:pageopacity="0.0"
     inkscape:pagecheckerboard="0"
     inkscape:document-units="mm"
     showgrid="false"
     units="px"
     inkscape:zoom="0.57370932"
     inkscape:cx="875.8791"
     inkscape:cy="422.68792"
     inkscape:window-width="1916"
     inkscape:window-height="1036"
     inkscape:window-x="0"
     inkscape:window-y="20"
     inkscape:window-maximized="1"
     inkscape:current-layer="layer1"
     showguides="false"
     inkscape:showpageshadow="2"
     inkscape:deskcolor="#d1d1d1" />
  <defs
     id="defs2">
    <marker
       style="overflow:visible;"
       id="Arrow1Mend"
       refX="0.0"
       refY="0.0"
       orient="auto"
       inkscape:stockid="Arrow1Mend"
       inkscape:isstock="true">
      <path
         transform="scale(0.4) rotate(180) translate(10,0)"
         style="fill-rule:evenodd;fill:context-stroke;stroke:context-stroke;stroke-width:1.0pt;"
         d="M 0.0,0.0 L 5.0,-5.0 L -12.5,0.0 L 5.0,5.0 L 0.0,0.0 z "
         id="path1406" />
    </marker>
    <marker
       style="overflow:visible"
       id="Arrow1Lstart"
       refX="0.0"
       refY="0.0"
       orient="auto"
       inkscape:stockid="Arrow1Lstart"
       inkscape:isstock="true">
      <path
         transform="scale(0.8) translate(12.5,0)"
         style="fill-rule:evenodd;fill:context-stroke;stroke:context-stroke;stroke-width:1.0pt"
         d="M 0.0,0.0 L 5.0,-5.0 L -12.5,0.0 L 5.0,5.0 L 0.0,0.0 z "
         id="path1397" />
    </marker>
    <marker
       style="overflow:visible"
       id="Arrow1Mend-2"
       refX="0"
       refY="0"
       orient="auto"
       inkscape:stockid="Arrow1Mend"
       inkscape:isstock="true">
      <path
         transform="matrix(-0.4,0,0,-0.4,-4,0)"
         style="fill:context-stroke;fill-rule:evenodd;stroke:context-stroke;stroke-width:1pt"
         d="M 0,0 5,-5 -12.5,0 5,5 Z"
         id="path1406-9" />
    </marker>
    <marker
       style="overflow:visible"
       id="Arrow1Mend-9"
       refX="0"
       refY="0"
       orient="auto"
       inkscape:stockid="Arrow1Mend"
       inkscape:isstock="true">
      <path
         transform="matrix(-0.4,0,0,-0.4,-4,0)"
         style="fill:context-stroke;fill-rule:evenodd;stroke:context-stroke;stroke-width:1pt"
         d="M 0,0 5,-5 -12.5,0 5,5 Z"
         id="path1406-3" />
    </marker>
    <marker
       style="overflow:visible"
       id="Arrow1Mend-26"
       refX="0"
       refY="0"
       orient="auto"
       inkscape:stockid="Arrow1Mend"
       inkscape:isstock="true">
      <path
         transform="matrix(-0.4,0,0,-0.4,-4,0)"
         style="fill:context-stroke;fill-rule:evenodd;stroke:context-stroke;stroke-width:1pt"
         d="M 0,0 5,-5 -12.5,0 5,5 Z"
         id="path1406-1" />
    </marker>
    <marker
       style="overflow:visible"
       id="Arrow1Mend-7"
       refX="0"
       refY="0"
       orient="auto"
       inkscape:stockid="Arrow1Mend"
       inkscape:isstock="true">
      <path
         transform="matrix(-0.4,0,0,-0.4,-4,0)"
         style="fill:context-stroke;fill-rule:evenodd;stroke:context-stroke;stroke-width:1pt"
         d="M 0,0 5,-5 -12.5,0 5,5 Z"
         id="path1406-36" />
    </marker>
    <marker
       style="overflow:visible"
       id="Arrow1Mend-7-2"
       refX="0"
       refY="0"
       orient="auto"
       inkscape:stockid="Arrow1Mend"
       inkscape:isstock="true">
      <path
         transform="matrix(-0.4,0,0,-0.4,-4,0)"
         style="fill:context-stroke;fill-rule:evenodd;stroke:context-stroke;stroke-width:1pt"
         d="M 0,0 5,-5 -12.5,0 5,5 Z"
         id="path1406-36-9" />
    </marker>
    <marker
       style="overflow:visible"
       id="Arrow1Mend-7-2-1"
       refX="0"
       refY="0"
       orient="auto"
       inkscape:stockid="Arrow1Mend"
       inkscape:isstock="true">
      <path
         transform="matrix(-0.4,0,0,-0.4,-4,0)"
         style="fill:context-stroke;fill-rule:evenodd;stroke:context-stroke;stroke-width:1pt"
         d="M 0,0 5,-5 -12.5,0 5,5 Z"
         id="path1406-36-9-9" />
    </marker>
    <marker
       style="overflow:visible"
       id="Arrow1Mend-7-2-1-5"
       refX="0"
       refY="0"
       orient="auto"
       inkscape:stockid="Arrow1Mend"
       inkscape:isstock="true">
      <path
         transform="matrix(-0.4,0,0,-0.4,-4,0)"
         style="fill:context-stroke;fill-rule:evenodd;stroke:context-stroke;stroke-width:1pt"
         d="M 0,0 5,-5 -12.5,0 5,5 Z"
         id="path1406-36-9-9-0" />
    </marker>
    <marker
       style="overflow:visible"
       id="Arrow1Mend-26-6"
       refX="0"
       refY="0"
       orient="auto"
       inkscape:stockid="Arrow1Mend"
       inkscape:isstock="true">
      <path
         transform="matrix(-0.4,0,0,-0.4,-4,0)"
         style="fill:context-stroke;fill-rule:evenodd;stroke:context-stroke;stroke-width:1pt"
         d="M 0,0 5,-5 -12.5,0 5,5 Z"
         id="path1406-1-1" />
    </marker>
    <marker
       style="overflow:visible"
       id="Arrow1Mend-26-6-6"
       refX="0"
       refY="0"
       orient="auto"
       inkscape:stockid="Arrow1Mend"
       inkscape:isstock="true">
      <path
         transform="matrix(-0.4,0,0,-0.4,-4,0)"
         style="fill:context-stroke;fill-rule:evenodd;stroke:context-stroke;stroke-width:1pt"
         d="M 0,0 5,-5 -12.5,0 5,5 Z"
         id="path1406-1-1-3" />
    </marker>
    <marker
       style="overflow:visible"
       id="Arrow1Mend-26-6-6-0"
       refX="0"
       refY="0"
       orient="auto"
       inkscape:stockid="Arrow1Mend"
       inkscape:isstock="true">
      <path
         transform="matrix(-0.4,0,0,-0.4,-4,0)"
         style="fill:context-stroke;fill-rule:evenodd;stroke:context-stroke;stroke-width:1pt"
         d="M 0,0 5,-5 -12.5,0 5,5 Z"
         id="path1406-1-1-3-6" />
    </marker>
    <marker
       style="overflow:visible"
       id="Arrow1Mend-26-6-6-0-5"
       refX="0"
       refY="0"
       orient="auto"
       inkscape:stockid="Arrow1Mend"
       inkscape:isstock="true">
      <path
         transform="matrix(-0.4,0,0,-0.4,-4,0)"
         style="fill:context-stroke;fill-rule:evenodd;stroke:context-stroke;stroke-width:1pt"
         d="M 0,0 5,-5 -12.5,0 5,5 Z"
         id="path1406-1-1-3-6-5" />
    </marker>
    <linearGradient
       gradientUnits="userSpaceOnUse"
       y2="131.85291"
       x2="110.14919"
       y1="77.070274"
       x1="55.549179"
       id="linearGradient9521"
       xlink:href="#linearGradient9515"
       inkscape:collect="always" />
    <linearGradient
       id="linearGradient9515"
       inkscape:collect="always">
      <stop
         id="stop9517"
         offset="0"
         style="stop-color:#387eb8;stop-opacity:1" />
      <stop
         id="stop9519"
         offset="1"
         style="stop-color:#366994;stop-opacity:1" />
    </linearGradient>
    <linearGradient
       gradientUnits="userSpaceOnUse"
       y2="168.1012"
       x2="147.77737"
       y1="111.92053"
       x1="89.136749"
       id="linearGradient11307"
       xlink:href="#linearGradient11301"
       inkscape:collect="always" />
    <linearGradient
       id="linearGradient11301"
       inkscape:collect="always">
      <stop
         id="stop11303"
         offset="0"
         style="stop-color:#ffe052;stop-opacity:1" />
      <stop
         id="stop11305"
         offset="1"
         style="stop-color:#ffc331;stop-opacity:1" />
    </linearGradient>
  </defs>
  <g
     inkscape:label="Layer 1"
     inkscape:groupmode="layer"
     id="layer1">
    <g
       id="g1148"
       transform="matrix(0.74219483,0,0,0.74219483,97.610221,34.381538)">
      <rect
         style="fill:#4d4d4d;stroke-width:1.70238;stop-color:#000000"
         id="rect965"
         width="242.33167"
         height="110.54924"
         x="294.02011"
         y="6.4467254"
         ry="5.6140432" />
      <g
         id="g941"
         transform="matrix(0.26458333,0,0,0.26458333,312.97771,16.221714)">
        <polygon
           style="fill:#d1d1d1;fill-opacity:1"
           transform="matrix(2.0000857,0,0,2.0000857,-438.1392,-540.63359)"
           id="polygon3"
           points="352,275.305 360,286.733 360,351.486 398.301,371.71 401.084,412.447 352,431.495 352,351.495 352,347.686 " />
        <g
           transform="matrix(2.0000857,0,0,2.0000857,-438.1392,-540.63359)"
           id="g5">
          <polygon
             style="fill:#d1d1d1;fill-opacity:1"
             id="polygon7"
             points="321,353.887 321,298.733 314,286.908 314,355.288 " />
          <polygon
             style="fill:#d1d1d1;fill-opacity:1"
             id="polygon9"
             points="283.018,361.486 283.018,309.644 276.018,298.215 276,362.891 " />
          <polygon
             style="fill:#cecece"
             id="polygon11"
             points="278,362.49 276,362.891 276,298.162 257,309.59 257,366.692 231.738,371.71 224.06,412.447 278,420.478 334.937,428.955 352,431.495 352,375.123 352,351.495 352,347.686 352,275.305 333,286.733 333,351.486 326,352.887 317,354.688 314,355.288 314,286.733 295,298.162 295,359.09 287,360.69 " />
        </g>
        <polygon
           style="fill:#ffffff;fill-opacity:1"
           transform="matrix(2.0000857,0,0,2.0000857,-438.1392,-540.63359)"
           id="polygon13"
           points="352,275.305 333,286.733 333,351.486 314,355.288 314,286.733 295,298.162 295,359.09 276,362.891 276,298.162 257,309.59 257,366.692 231.738,371.71 224.06,412.447 352,431.495 352,351.495 352,347.686 " />
        <g
           id="flowRoot4528"
           style="font-style:normal;font-weight:normal;font-size:40px;line-height:125%;font-family:sans-serif;letter-spacing:0px;word-spacing:0px;fill:#000000;fill-opacity:1;stroke:none;stroke-width:1px;stroke-linecap:butt;stroke-linejoin:miter;stroke-opacity:1"
           transform="matrix(1.1567335,0,0,1.1698648,-45.50874,19.7431)"
           aria-label="Open Build Service">
          <path
             id="path117"
             style="font-style:normal;font-variant:normal;font-weight:bold;font-stretch:normal;font-size:80px;line-height:95.6%;font-family:Roboto;-inkscape-font-specification:'Roboto, Bold';font-variant-ligatures:normal;font-variant-caps:normal;font-variant-numeric:normal;font-feature-settings:normal;text-align:start;writing-mode:lr-tb;text-anchor:start;fill:#ffffff"
             d="m 427.70117,52.100471 v 2.539062 q 0,13.007813 -6.75781,20.46875 -6.71875,7.460938 -17.42188,7.460938 -10.70312,0 -17.5,-7.460938 -6.79687,-7.460937 -6.79687,-20.46875 v -2.539062 q 0,-13.007813 6.75781,-20.46875 6.75781,-7.5 17.46094,-7.5 10.70312,0 17.46094,7.5 6.79687,7.460937 6.79687,20.46875 z m -11.875,2.539062 v -2.617187 q 0,-8.90625 -3.24219,-13.554688 -3.24218,-4.648437 -9.14062,-4.648437 -5.9375,0 -9.14063,4.648437 -3.20312,4.648438 -3.20312,13.554688 v 2.617187 q 0,8.867188 3.24219,13.59375 3.24218,4.6875 9.17968,4.6875 5.9375,0 9.10157,-4.6875 3.20312,-4.726562 3.20312,-13.59375 z" />
          <path
             id="path119"
             style="font-style:normal;font-variant:normal;font-weight:bold;font-stretch:normal;font-size:80px;line-height:95.6%;font-family:Roboto;-inkscape-font-specification:'Roboto, Bold';font-variant-ligatures:normal;font-variant-caps:normal;font-variant-numeric:normal;font-feature-settings:normal;text-align:start;writing-mode:lr-tb;text-anchor:start;fill:#ffffff"
             d="m 457.19336,82.569221 q -6.32813,0 -10.35156,-4.492188 V 98.037971 H 435.51367 V 39.522346 h 10.50781 l 0.42969,4.101562 q 4.02344,-4.882812 10.625,-4.882812 8.04688,0 12.26563,5.898437 4.25781,5.898438 4.25781,15.546875 v 0.820313 q 0,9.21875 -4.25781,15.390625 -4.21875,6.171875 -12.14844,6.171875 z m -3.04688,-34.6875 q -5.27343,0 -7.30468,4.101562 v 17.304688 q 2.10937,4.179687 7.38281,4.179687 4.41406,0 6.25,-3.671875 1.83594,-3.671875 1.83594,-8.789062 v -0.820313 q 0,-5.234375 -1.91407,-8.75 -1.875,-3.554687 -6.25,-3.554687 z" />
          <path
             id="path121"
             style="font-style:normal;font-variant:normal;font-weight:bold;font-stretch:normal;font-size:80px;line-height:95.6%;font-family:Roboto;-inkscape-font-specification:'Roboto, Bold';font-variant-ligatures:normal;font-variant-caps:normal;font-variant-numeric:normal;font-feature-settings:normal;text-align:start;writing-mode:lr-tb;text-anchor:start;fill:#ffffff"
             d="m 516.49023,74.912971 q -2.03125,2.890625 -6.17187,5.273437 -4.14063,2.382813 -10.3125,2.382813 -9.88281,0 -15.42969,-5.976563 -5.54687,-6.015625 -5.54687,-14.492187 v -1.523438 q 0,-9.570312 5.3125,-15.703125 5.35156,-6.132812 14.41406,-6.132812 9.10156,0 13.86719,5.703125 4.76562,5.703125 4.76562,15.078125 v 4.804687 h -26.91406 q 0.58594,4.101563 3.24219,6.640625 2.65625,2.5 6.99218,2.5 6.44532,0 10.19532,-4.726562 z m -17.8125,-27.070313 q -3.59375,0 -5.54687,2.421875 -1.95313,2.421875 -2.53906,6.328125 h 15.70312 v -0.859375 q -0.0781,-3.398437 -1.91406,-5.625 -1.79688,-2.265625 -5.70313,-2.265625 z" />
          <path
             id="path123"
             style="font-style:normal;font-variant:normal;font-weight:bold;font-stretch:normal;font-size:80px;line-height:95.6%;font-family:Roboto;-inkscape-font-specification:'Roboto, Bold';font-variant-ligatures:normal;font-variant-caps:normal;font-variant-numeric:normal;font-feature-settings:normal;text-align:start;writing-mode:lr-tb;text-anchor:start;fill:#ffffff"
             d="m 542.03711,47.881721 q -4.80469,0 -7.14844,4.0625 v 29.84375 H 523.59961 V 39.522346 h 10.58594 l 0.39062,4.84375 q 4.53125,-5.625 12.14844,-5.625 6.01562,0 9.6875,3.59375 3.67187,3.59375 3.67187,12.539062 V 81.787971 H 548.75586 V 54.834846 q 0,-4.0625 -1.75781,-5.507813 -1.71875,-1.445312 -4.96094,-1.445312 z" />
          <path
             id="path125"
             style="font-style:normal;font-variant:normal;font-weight:bold;font-stretch:normal;font-size:80px;line-height:95.6%;font-family:Roboto;-inkscape-font-specification:'Roboto, Bold';font-variant-ligatures:normal;font-variant-caps:normal;font-variant-numeric:normal;font-feature-settings:normal;text-align:start;writing-mode:lr-tb;text-anchor:start;fill:#ffffff"
             d="m 423.20898,141.51015 q 0,8.28125 -5.35156,12.53907 -5.3125,4.21875 -15.15625,4.21875 h -21.75781 v -56.875 h 19.96094 q 9.88281,0 15.46875,3.78906 5.58593,3.78906 5.58593,11.75781 0,3.86719 -1.95312,7.10938 -1.95313,3.24218 -6.17188,4.92187 5,1.25 7.1875,4.84375 2.1875,3.59375 2.1875,7.69531 z m -30.50781,-30.625 v 14.29688 h 8.20313 q 9.29687,0 9.29687,-7.03125 0,-7.26563 -9.29687,-7.26563 z m 18.78906,30.50782 q 0,-3.67188 -1.95312,-5.78125 -1.91406,-2.14844 -6.36719,-2.14844 h -10.46875 v 15.35156 h 10 q 4.49219,0 6.64063,-2.10937 2.14843,-2.10938 2.14843,-5.3125 z" />
          <path
             id="path127"
             style="font-style:normal;font-variant:normal;font-weight:bold;font-stretch:normal;font-size:80px;line-height:95.6%;font-family:Roboto;-inkscape-font-specification:'Roboto, Bold';font-variant-ligatures:normal;font-variant-caps:normal;font-variant-numeric:normal;font-feature-settings:normal;text-align:start;writing-mode:lr-tb;text-anchor:start;fill:#ffffff"
             d="m 456.95898,158.26797 -0.3125,-4.33594 q -4.14062,5.11719 -11.5625,5.11719 -6.25,0 -10.15625,-3.67188 -3.86718,-3.67187 -3.86718,-12.03125 v -27.34375 h 11.28906 v 27.42188 q 0,3.51562 1.67969,5 1.67968,1.44531 4.29687,1.44531 3.08594,0 5,-1.05469 1.91406,-1.09375 2.92969,-2.96875 v -29.84375 h 11.32812 v 42.26563 z" />
          <path
             id="path129"
             style="font-style:normal;font-variant:normal;font-weight:bold;font-stretch:normal;font-size:80px;line-height:95.6%;font-family:Roboto;-inkscape-font-specification:'Roboto, Bold';font-variant-ligatures:normal;font-variant-caps:normal;font-variant-numeric:normal;font-feature-settings:normal;text-align:start;writing-mode:lr-tb;text-anchor:start;fill:#ffffff"
             d="m 476.06055,105.06484 q 0,-2.53906 1.71875,-4.17969 1.71875,-1.679683 4.60937,-1.679683 2.89063,0 4.60938,1.679683 1.71875,1.64063 1.71875,4.17969 0,2.5 -1.71875,4.17969 -1.71875,1.64062 -4.60938,1.64062 -2.89062,0 -4.60937,-1.64062 -1.71875,-1.67969 -1.71875,-4.17969 z m 12.03125,10.9375 v 42.26563 h -11.32813 v -42.26563 z" />
          <path
             id="path131"
             style="font-style:normal;font-variant:normal;font-weight:bold;font-stretch:normal;font-size:80px;line-height:95.6%;font-family:Roboto;-inkscape-font-specification:'Roboto, Bold';font-variant-ligatures:normal;font-variant-caps:normal;font-variant-numeric:normal;font-feature-settings:normal;text-align:start;writing-mode:lr-tb;text-anchor:start;fill:#ffffff"
             d="M 509.3418,98.267967 V 158.26797 H 498.01367 V 98.267967 Z" />
          <path
             id="path133"
             style="font-style:normal;font-variant:normal;font-weight:bold;font-stretch:normal;font-size:80px;line-height:95.6%;font-family:Roboto;-inkscape-font-specification:'Roboto, Bold';font-variant-ligatures:normal;font-variant-caps:normal;font-variant-numeric:normal;font-feature-settings:normal;text-align:start;writing-mode:lr-tb;text-anchor:start;fill:#ffffff"
             d="m 544.77148,158.26797 -0.54687,-4.49219 q -1.95313,2.46094 -4.64844,3.86719 -2.65625,1.40625 -6.17187,1.40625 -7.85157,0 -12.1875,-6.09375 -4.33594,-6.09375 -4.33594,-15.3125 v -0.82032 q 0,-9.64843 4.33594,-15.625 4.33593,-5.97656 12.26562,-5.97656 6.17188,0 10.15625,4.57031 V 98.267967 h 11.32813 v 60.000003 z m -16.5625,-20.625 q 0,5.07812 1.79688,8.67187 1.79687,3.55469 6.25,3.55469 5.15625,0 7.38281,-4.375 v -16.75781 q -2.14844,-4.375 -7.30469,-4.375 -4.41406,0 -6.28906,3.63281 -1.83594,3.59375 -1.83594,8.82812 z" />
          <path
             id="path135"
             style="font-style:normal;font-variant:normal;font-weight:bold;font-stretch:normal;font-size:80px;line-height:95.6%;font-family:Roboto;-inkscape-font-specification:'Roboto, Bold';font-variant-ligatures:normal;font-variant-caps:normal;font-variant-numeric:normal;font-feature-settings:normal;text-align:start;writing-mode:lr-tb;text-anchor:start;fill:#ffffff"
             d="m 410.47461,219.82609 q 0,-2.96875 -2.10938,-4.88282 -2.10937,-1.91406 -9.02343,-4.10156 -7.77344,-2.5 -13.39844,-6.48437 -5.625,-3.98438 -5.625,-11.36719 0,-7.14844 5.89844,-11.52344 5.89843,-4.375 15.11718,-4.375 9.45313,0 15.15625,4.96094 5.70313,4.92187 5.70313,12.57812 h -11.71875 q 0,-3.59375 -2.30469,-5.89843 -2.30469,-2.30469 -7.03125,-2.30469 -4.60937,0 -6.875,1.95312 -2.22656,1.91407 -2.22656,4.64844 0,2.8125 2.89062,4.6875 2.89063,1.875 8.39844,3.55469 9.33594,2.85156 14.10156,7.14844 4.80469,4.29687 4.80469,11.32812 0,7.46094 -5.625,11.64063 -5.625,4.14062 -15,4.14062 -5.66406,0 -10.9375,-1.99219 -5.27344,-1.99218 -8.67187,-6.13281 -3.39844,-4.14062 -3.39844,-10.58594 h 11.75781 q 0,5.19532 3.08594,7.30469 3.125,2.10938 8.16406,2.10938 4.53125,0 6.67969,-1.83594 2.1875,-1.83594 2.1875,-4.57031 z" />
          <path
             id="path137"
             style="font-style:normal;font-variant:normal;font-weight:bold;font-stretch:normal;font-size:80px;line-height:95.6%;font-family:Roboto;-inkscape-font-specification:'Roboto, Bold';font-variant-ligatures:normal;font-variant-caps:normal;font-variant-numeric:normal;font-feature-settings:normal;text-align:start;writing-mode:lr-tb;text-anchor:start;fill:#ffffff"
             d="m 465.39648,227.87296 q -2.03125,2.89063 -6.17187,5.27344 -4.14063,2.38281 -10.3125,2.38281 -9.88281,0 -15.42969,-5.97656 -5.54687,-6.01563 -5.54687,-14.49219 v -1.52344 q 0,-9.57031 5.3125,-15.70312 5.35156,-6.13281 14.41406,-6.13281 9.10156,0 13.86719,5.70312 4.76562,5.70313 4.76562,15.07813 v 4.80468 h -26.91406 q 0.58594,4.10157 3.24219,6.64063 2.65625,2.5 6.99218,2.5 6.44532,0 10.19532,-4.72656 z m -17.8125,-27.07031 q -3.59375,0 -5.54687,2.42187 -1.95313,2.42188 -2.53906,6.32813 h 15.70312 v -0.85938 q -0.0781,-3.39843 -1.91406,-5.625 -1.79688,-2.26562 -5.70313,-2.26562 z" />
          <path
             id="path139"
             style="font-style:normal;font-variant:normal;font-weight:bold;font-stretch:normal;font-size:80px;line-height:95.6%;font-family:Roboto;-inkscape-font-specification:'Roboto, Bold';font-variant-ligatures:normal;font-variant-caps:normal;font-variant-numeric:normal;font-feature-settings:normal;text-align:start;writing-mode:lr-tb;text-anchor:start;fill:#ffffff"
             d="m 492.38867,202.71671 q -6.36719,0 -8.35937,4.33594 v 27.69531 h -11.32813 v -42.26562 h 10.66406 l 0.35157,5.03906 q 3.32031,-5.82031 9.41406,-5.82031 2.14844,0 3.47656,0.50781 l -0.11719,10.82031 q -0.85937,-0.0781 -2.03125,-0.19531 -1.13281,-0.11719 -2.07031,-0.11719 z" />
          <path
             id="path141"
             style="font-style:normal;font-variant:normal;font-weight:bold;font-stretch:normal;font-size:80px;line-height:95.6%;font-family:Roboto;-inkscape-font-specification:'Roboto, Bold';font-variant-ligatures:normal;font-variant-caps:normal;font-variant-numeric:normal;font-feature-settings:normal;text-align:start;writing-mode:lr-tb;text-anchor:start;fill:#ffffff"
             d="m 538.48242,192.48234 -14.25781,42.26562 h -10.74219 l -14.29687,-42.26562 h 11.83593 l 7.85157,28.39843 7.8125,-28.39843 z" />
          <path
             id="path143"
             style="font-style:normal;font-variant:normal;font-weight:bold;font-stretch:normal;font-size:80px;line-height:95.6%;font-family:Roboto;-inkscape-font-specification:'Roboto, Bold';font-variant-ligatures:normal;font-variant-caps:normal;font-variant-numeric:normal;font-feature-settings:normal;text-align:start;writing-mode:lr-tb;text-anchor:start;fill:#ffffff"
             d="m 543.4043,181.54484 q 0,-2.53907 1.71875,-4.17969 1.71875,-1.67969 4.60937,-1.67969 2.89063,0 4.60938,1.67969 1.71875,1.64062 1.71875,4.17969 0,2.5 -1.71875,4.17968 -1.71875,1.64063 -4.60938,1.64063 -2.89062,0 -4.60937,-1.64063 -1.71875,-1.67968 -1.71875,-4.17968 z m 12.03125,10.9375 v 42.26562 h -11.32813 v -42.26562 z" />
          <path
             id="path145"
             style="font-style:normal;font-variant:normal;font-weight:bold;font-stretch:normal;font-size:80px;line-height:95.6%;font-family:Roboto;-inkscape-font-specification:'Roboto, Bold';font-variant-ligatures:normal;font-variant-caps:normal;font-variant-numeric:normal;font-feature-settings:normal;text-align:start;writing-mode:lr-tb;text-anchor:start;fill:#ffffff"
             d="m 582.31055,226.42765 q 3.08593,0 5.07812,-1.67969 1.99219,-1.71875 2.03125,-4.60937 h 10.625 q -0.0781,6.71875 -5.15625,11.05468 -5.03906,4.33594 -12.38281,4.33594 -9.80469,0 -14.6875,-6.17187 -4.84375,-6.21094 -4.84375,-15.19532 v -1.09375 q 0,-8.94531 4.84375,-15.15625 4.84375,-6.21093 14.64844,-6.21093 7.77343,0 12.61718,4.45312 4.88282,4.45313 4.96094,12.07031 h -10.625 q -0.0391,-3.08593 -1.875,-5.23437 -1.83594,-2.1875 -5.27344,-2.1875 -4.96093,0 -6.48437,3.78906 -1.48438,3.75 -1.48438,8.47656 v 1.09375 q 0,4.88282 1.48438,8.59375 1.52344,3.67188 6.52344,3.67188 z" />
          <path
             id="path147"
             style="font-style:normal;font-variant:normal;font-weight:bold;font-stretch:normal;font-size:80px;line-height:95.6%;font-family:Roboto;-inkscape-font-specification:'Roboto, Bold';font-variant-ligatures:normal;font-variant-caps:normal;font-variant-numeric:normal;font-feature-settings:normal;text-align:start;writing-mode:lr-tb;text-anchor:start;fill:#ffffff"
             d="m 642.42773,227.87296 q -2.03125,2.89063 -6.17187,5.27344 -4.14063,2.38281 -10.3125,2.38281 -9.88281,0 -15.42969,-5.97656 -5.54687,-6.01563 -5.54687,-14.49219 v -1.52344 q 0,-9.57031 5.3125,-15.70312 5.35156,-6.13281 14.41406,-6.13281 9.10156,0 13.86719,5.70312 4.76562,5.70313 4.76562,15.07813 v 4.80468 h -26.91406 q 0.58594,4.10157 3.24219,6.64063 2.65625,2.5 6.99218,2.5 6.44532,0 10.19532,-4.72656 z m -17.8125,-27.07031 q -3.59375,0 -5.54687,2.42187 -1.95313,2.42188 -2.53906,6.32813 h 15.70312 v -0.85938 q -0.0781,-3.39843 -1.91406,-5.625 -1.79688,-2.26562 -5.70313,-2.26562 z" />
        </g>
        <text
           id="text4546"
           y="73.681503"
           x="562.16949"
           style="font-style:normal;font-weight:normal;font-size:40px;line-height:125%;font-family:sans-serif;letter-spacing:0px;word-spacing:0px;fill:#000000;fill-opacity:1;stroke:none;stroke-width:1px;stroke-linecap:butt;stroke-linejoin:miter;stroke-opacity:1"
           xml:space="preserve"><tspan
             y="110.46233"
             x="562.16949"
             id="tspan4544" /><tspan
             id="tspan4548"
             y="160.46233"
             x="562.16949" /></text>
      </g>
    </g>
    <rect
       style="fill:none;stroke:#000000;stroke-width:1.852;stroke-miterlimit:4;stroke-dasharray:5.556, 5.556;stroke-dashoffset:0;stroke-opacity:1;stop-color:#000000"
       id="rect1176"
       width="117.39377"
       height="231.3261"
       x="4.9018602"
       y="32.009357"
       ry="5.4157844" />
    <rect
       style="fill:none;stroke:#000000;stroke-width:1.852;stroke-miterlimit:4;stroke-dasharray:5.556, 5.556;stroke-dashoffset:0;stroke-opacity:1;stop-color:#000000"
       id="rect1176-7"
       width="193.34535"
       height="232.74634"
       x="309.68298"
       y="33.179596"
       ry="7.4513493" />
    <g
       id="g2560"
       transform="matrix(0.13849552,0,0,0.13849552,20.079831,67.29776)">
      <path
         id="path50_5_"
         class="st3"
         d="m 292.778,434.892 v 0 L 354.977,243.57 H 230.669 Z" />
      <path
         id="path66_12_"
         class="st4"
         d="m 143.549,243.57 v 0 l -18.941,58.126 c -1.714,5.278 0.137,11.104 4.661,14.394 l 163.509,118.801 z" />
      <path
         id="path74_5_"
         class="st3"
         d="m 143.549,243.57 h 87.12 L 193.175,128.346 c -1.919,-5.895 -10.282,-5.895 -12.27,0 z" />
      <path
         id="path82_12_"
         class="st4"
         d="m 442.097,243.57 v 0 l 18.873,58.126 c 1.714,5.278 -0.137,11.104 -4.661,14.394 L 292.778,434.892 Z" />
      <path
         id="path86_5_"
         class="st3"
         d="m 442.097,243.57 h -87.12 l 37.425,-115.224 c 1.919,-5.895 10.282,-5.895 12.27,0 z" />
      <polygon
         class="st5"
         points="292.778,434.892 354.977,243.57 442.097,243.57 "
         id="polygon2556" />
      <polygon
         class="st5"
         points="292.778,434.892 143.549,243.57 230.669,243.57 "
         id="polygon2558" />
    </g>
    <g
       id="spacing_guides"
       class="st14"
       transform="matrix(0.26458333,0,0,0.26458333,-1.3828309,203.24246)">
      <path
         id="path40_32_"
         sketch:type="MSShapeGroup"
         class="st15"
         d="M -1,0 V 124 H 1267 V 0 Z" />
      <path
         id="path40_31_"
         sketch:type="MSShapeGroup"
         class="st15"
         d="M -1,435 V 559 H 1267 V 435 Z" />
      <path
         id="path40_30_"
         sketch:type="MSShapeGroup"
         class="st15"
         d="m 261.69,434.551 h 62 v -310 h -62 z" />
      <path
         id="path40_29_"
         sketch:type="MSShapeGroup"
         class="st15"
         d="m 462.2,560 h 62 V -1 h -62 z" />
      <text
         transform="translate(256.2529,195)"
         class="st16 st18 st19"
         id="text2569">H: 2.5 x</text>
      <text
         transform="translate(468.4727,282.832)"
         class="st16 st18 st19"
         id="text2571">1/2 x</text>
      <text
         transform="translate(621.2881,500.4978)"
         class="st16 st18 st19"
         id="text2573">1x</text>
      <text
         transform="translate(621.2881,65.4988)"
         class="st16 st18 st19"
         id="text2575">1x</text>
      <path
         id="path40_27_"
         sketch:type="MSShapeGroup"
         class="st15"
         d="M 0,560 H 124 V -1 H 0 Z" />
      <text
         transform="translate(51.2881,282.832)"
         class="st16 st18 st19"
         id="text2578">1x</text>
      <path
         id="path40_3_"
         sketch:type="MSShapeGroup"
         class="st15"
         d="m 1142,560 h 124 V -1 h -124 z" />
      <text
         transform="translate(1191.2881,282.832)"
         class="st16 st18 st19"
         id="text2581">1x</text>
    </g>
    <path
       d="m 158.69576,95.779884 h 12.2203 v 3.055095 h -12.2203 z m 0,-6.11015 h 12.2203 v 3.05511 h -12.2203 z m 9.16526,-15.27542 h -12.22037 c -1.68029,0 -3.05511,1.37476 -3.05511,3.05505 v 24.440716 c 0,1.68029 1.35952,3.05505 3.03981,3.05505 h 18.34582 c 1.68029,0 3.05511,-1.37476 3.05511,-3.05505 V 83.559584 Z m 6.11015,27.495766 H 155.64065 V 77.449364 h 10.69279 v 7.63774 h 7.63773 z"
       id="path2-0"
       style="stroke-width:1.52754" />
    <path
       style="fill:none;stroke:#000000;stroke-width:2.11667;stroke-linecap:butt;stroke-linejoin:miter;stroke-miterlimit:4;stroke-dasharray:none;stroke-opacity:1;marker-end:url(#Arrow1Mend)"
       d="m 88.600466,165.58149 c 16.722264,0 17.240484,-73.826847 47.120244,-73.826847 h 10.05416"
       id="path3802"
       sodipodi:nodetypes="ccc" />
    <path
       style="fill:none;stroke:#000000;stroke-width:2.11667;stroke-linecap:butt;stroke-linejoin:miter;stroke-miterlimit:4;stroke-dasharray:none;stroke-opacity:1;marker-end:url(#Arrow1Mend-7)"
       d="m 88.600466,169.81482 c 16.722264,0 16.182144,-38.90184 46.061904,-38.90184 h 11.1125"
       id="path3802-1"
       sodipodi:nodetypes="ccc" />
    <path
       style="fill:none;stroke:#000000;stroke-width:2.11667;stroke-linecap:butt;stroke-linejoin:miter;stroke-miterlimit:4;stroke-dasharray:none;stroke-opacity:1;marker-end:url(#Arrow1Mend-7-2)"
       d="m 88.600466,174.04819 c 16.722264,0 17.240484,-0.80183 47.120244,-0.80183 l 9.81683,-0.51227"
       id="path3802-1-3"
       sodipodi:nodetypes="ccc" />
    <path
       style="fill:none;stroke:#000000;stroke-width:2.11667;stroke-linecap:butt;stroke-linejoin:miter;stroke-miterlimit:4;stroke-dasharray:none;stroke-opacity:1;marker-end:url(#Arrow1Mend-7-2-1)"
       d="m 88.600466,178.57587 c 16.722264,0 17.240484,33.08101 47.120244,33.08101 h 8.99583"
       id="path3802-1-3-4"
       sodipodi:nodetypes="ccc" />
    <path
       style="fill:none;stroke:#000000;stroke-width:2.11667;stroke-linecap:butt;stroke-linejoin:miter;stroke-miterlimit:4;stroke-dasharray:none;stroke-opacity:1;marker-end:url(#Arrow1Mend-7-2-1-5)"
       d="m 88.600466,183.3384 c 16.722264,0 17.240484,64.83101 47.120244,64.83101 h 8.99583"
       id="path3802-1-3-4-3"
       sodipodi:nodetypes="ccc" />
    <text
       xml:space="preserve"
       style="font-size:16.9333px;line-height:1.25;font-family:Poppins;-inkscape-font-specification:Poppins;stroke-width:0.264583"
       x="184.42841"
       y="96.576553"
       id="text6606-0"><tspan
         sodipodi:role="line"
         id="tspan6604-6"
         style="font-size:16.9333px;stroke-width:0.264583"
         x="184.42841"
         y="96.576553">Dockerfile</tspan></text>
    <path
       d="m 158.69576,136.60328 h 12.2203 v 3.05511 h -12.2203 z m 0,-6.11015 h 12.2203 v 3.05511 h -12.2203 z m 9.16526,-15.27542 h -12.22037 c -1.68029,0 -3.05511,1.37476 -3.05511,3.05505 v 24.44074 c 0,1.68029 1.35952,3.05505 3.03981,3.05505 h 18.34582 c 1.68029,0 3.05511,-1.37476 3.05511,-3.05505 v -18.33052 z m 6.11015,27.49579 h -18.33052 v -24.44074 h 10.69279 v 7.63774 h 7.63773 z"
       id="path2-0-9"
       style="stroke-width:1.52754" />
    <text
       xml:space="preserve"
       style="font-size:16.9333px;line-height:1.25;font-family:Poppins;-inkscape-font-specification:Poppins;stroke-width:0.264583"
       x="184.42841"
       y="137.40088"
       id="text6606-0-2"><tspan
         sodipodi:role="line"
         id="tspan6604-6-0"
         style="font-size:16.9333px;stroke-width:0.264583"
         x="184.42841"
         y="137.40088">kiwi.xml</tspan></text>
    <path
       d="m 158.69576,177.93369 h 12.2203 v 3.05511 h -12.2203 z m 0,-6.11015 h 12.2203 v 3.05511 h -12.2203 z m 9.16526,-15.27542 h -12.22037 c -1.68029,0 -3.05511,1.37476 -3.05511,3.05505 v 24.44074 c 0,1.68029 1.35952,3.05505 3.03981,3.05505 h 18.34582 c 1.68029,0 3.05511,-1.37476 3.05511,-3.05505 v -18.33052 z m 6.11015,27.49579 h -18.33052 v -24.44074 h 10.69279 v 7.63774 h 7.63773 z"
       id="path2-0-9-5"
       style="stroke-width:1.52754" />
    <text
       xml:space="preserve"
       style="font-size:16.9333px;line-height:1.25;font-family:Poppins;-inkscape-font-specification:Poppins;stroke-width:0.264583"
       x="184.42841"
       y="178.7321"
       id="text6606-0-2-9"><tspan
         sodipodi:role="line"
         id="tspan6604-6-0-2"
         style="font-size:16.9333px;stroke-width:0.264583"
         x="184.42841"
         y="178.7321">config.sh</tspan></text>
    <path
       d="m 158.69576,216.03393 h 12.2203 v 3.05511 h -12.2203 z m 0,-6.11015 h 12.2203 v 3.05511 h -12.2203 z m 9.16526,-15.27542 h -12.22037 c -1.68029,0 -3.05511,1.37476 -3.05511,3.05505 v 24.44074 c 0,1.68029 1.35952,3.05505 3.03981,3.05505 h 18.34582 c 1.68029,0 3.05511,-1.37476 3.05511,-3.05505 v -18.33052 z m 6.11015,27.49579 h -18.33052 v -24.44074 h 10.69279 v 7.63774 h 7.63773 z"
       id="path2-0-9-5-2"
       style="stroke-width:1.52754" />
    <text
       xml:space="preserve"
       style="font-size:16.9333px;line-height:1.25;font-family:Poppins;-inkscape-font-specification:Poppins;stroke-width:0.264583"
       x="184.42841"
       y="216.83159"
       id="text6606-0-2-9-8"><tspan
         sodipodi:role="line"
         id="tspan6604-6-0-2-9"
         style="font-size:16.9333px;stroke-width:0.264583"
         x="184.42841"
         y="216.83159">_service</tspan></text>
    <path
       d="m 158.69576,253.07583 h 12.2203 v 3.05511 h -12.2203 z m 0,-6.11015 h 12.2203 v 3.05511 h -12.2203 z m 9.16526,-15.27542 h -12.22037 c -1.68029,0 -3.05511,1.37476 -3.05511,3.05505 v 24.44074 c 0,1.68029 1.35952,3.05505 3.03981,3.05505 h 18.34582 c 1.68029,0 3.05511,-1.37476 3.05511,-3.05505 v -18.33052 z m 6.11015,27.49579 h -18.33052 v -24.44074 h 10.69279 v 7.63774 h 7.63773 z"
       id="path2-0-9-5-2-7"
       style="stroke-width:1.52754" />
    <text
       xml:space="preserve"
       style="font-size:16.9333px;line-height:1.25;font-family:Poppins;-inkscape-font-specification:Poppins;stroke-width:0.264583"
       x="184.42841"
       y="253.87276"
       id="text6606-0-2-9-8-8"><tspan
         sodipodi:role="line"
         style="font-size:16.9333px;stroke-width:0.264583"
         x="184.42841"
         y="253.87276"
         id="tspan30163">+ extra files</tspan></text>
    <text
       xml:space="preserve"
       style="font-size:16.9333px;line-height:1.25;font-family:Poppins;-inkscape-font-specification:Poppins;stroke-width:0.264583"
       x="35.296055"
       y="65.094299"
       id="text16235"><tspan
         sodipodi:role="line"
         id="tspan16233"
         style="font-size:16.9333px;stroke-width:0.264583"
         x="35.296055"
         y="65.094299">Gitlab</tspan></text>
    <g
       id="g36128"
       transform="translate(-23.210781,309.99253)">
      <path
         style="fill:none;stroke:#000000;stroke-width:2.11667;stroke-linecap:butt;stroke-linejoin:miter;stroke-miterlimit:4;stroke-dasharray:none;stroke-opacity:1;marker-end:url(#Arrow1Mend-26-6-6-0)"
         d="m 286.98235,90.161637 c 45.22952,32.074063 5.096,107.566323 128.77905,107.566323"
         id="path3802-8-0-2-1"
         sodipodi:nodetypes="cc" />
      <path
         style="fill:none;stroke:#000000;stroke-width:2.11667;stroke-linecap:butt;stroke-linejoin:miter;stroke-miterlimit:4;stroke-dasharray:none;stroke-opacity:1"
         d="m 272.82594,133.5533 c 19.21673,27.79299 35.86931,64.17466 142.93546,64.17466"
         id="path3802-8-0-2-1-4"
         sodipodi:nodetypes="cc" />
      <path
         style="fill:none;stroke:#000000;stroke-width:2.11667;stroke-linecap:butt;stroke-linejoin:miter;stroke-miterlimit:4;stroke-dasharray:none;stroke-opacity:1"
         d="m 282.74902,172.90257 c 29.68752,16.28189 47.35575,24.82539 133.01238,24.82539"
         id="path3802-8-0-2-1-4-7"
         sodipodi:nodetypes="cc" />
      <path
         style="fill:none;stroke:#000000;stroke-width:2.11667;stroke-linecap:butt;stroke-linejoin:miter;stroke-miterlimit:4;stroke-dasharray:none;stroke-opacity:1"
         d="m 278.96219,211.16222 c 24.09514,-10.32638 51.14258,-13.43426 136.79921,-13.43426"
         id="path3802-8-0-2-1-4-7-5"
         sodipodi:nodetypes="cc" />
      <path
         style="fill:none;stroke:#000000;stroke-width:2.11667;stroke-linecap:butt;stroke-linejoin:miter;stroke-miterlimit:4;stroke-dasharray:none;stroke-opacity:1"
         d="m 298.84563,248.76811 c 11.20068,-30.59444 19.03224,-51.04015 116.91577,-51.04015"
         id="path3802-8-0-2-1-4-7-6"
         sodipodi:nodetypes="cc" />
    </g>
    <g
       id="g36148"
       transform="translate(106.71485,157.82411)">
      <rect
         x="365.95981"
         y="208.57349"
         width="10.847063"
         height="5.4235315"
         id="rect2"
         style="stroke-width:2.71176" />
      <path
         d="m 349.68918,181.45587 v 5.42357 h 5.42347 v 29.82935 a 5.4311791,5.4311791 0 0 0 5.42355,5.42357 h 32.54122 a 5.4312877,5.4312877 0 0 0 5.42355,-5.42357 v -29.82935 h 5.42347 v -5.42357 z m 43.38824,35.25292 H 360.5362 v -29.82935 h 32.54122 z"
         id="path4-6"
         style="stroke-width:2.71176" />
    </g>
    <path
       style="fill:none;stroke:#000000;stroke-width:2.11667;stroke-linecap:butt;stroke-linejoin:miter;stroke-miterlimit:4;stroke-dasharray:none;stroke-opacity:1"
       d="m 278.16449,76.056049 c 20.00141,0 -6.20809,92.478291 30.49945,92.478291"
       id="path36183"
       sodipodi:nodetypes="cc" />
    <path
       style="fill:none;stroke:#000000;stroke-width:2.11667;stroke-linecap:butt;stroke-linejoin:miter;stroke-miterlimit:4;stroke-dasharray:none;stroke-opacity:1"
       d="m 278.16449,261.01262 c 20.00141,0 -6.20809,-92.47828 30.49945,-92.47828"
       id="path36183-9"
       sodipodi:nodetypes="cc" />
    <path
       style="fill:none;stroke:#000000;stroke-width:2.11667;stroke-linecap:butt;stroke-linejoin:miter;stroke-miterlimit:4;stroke-dasharray:none;stroke-opacity:1;marker-end:url(#Arrow1Mend)"
       d="m 308.66394,168.53434 c 51.00034,0 64.09369,25.66986 108.03764,30.43801"
       id="path36586"
       sodipodi:nodetypes="cc" />
    <path
       fill-rule="evenodd"
       clip-rule="evenodd"
       d="m 59.508622,183.02914 a 8.3036544,8.3036544 0 0 1 -15.887676,3.38513 l -2.568557,1.04072 a 11.074307,11.074307 0 1 0 1.386641,-11.19056 v -3.38511 h -2.767855 v 7.38195 l 1.383932,1.38394 h 6.457447 v -2.76789 h -3.501293 a 8.3036544,8.3036544 0 0 1 15.497361,4.15182 z"
       id="path33597"
       style="stroke-width:2.76788" />
    <path
       fill-rule="evenodd"
       clip-rule="evenodd"
       d="m 53.51064,156.48513 2.158893,-1.13483 24.910972,16.60731 v 2.29733 l -13.230514,8.82126 v -3.32146 l 9.96439,-6.63462 -21.035888,-14.03317 v 10.10277 H 53.51064 Z"
       id="path33599"
       style="stroke-width:2.76788" />
    <path
       fill-rule="evenodd"
       clip-rule="evenodd"
       d="m 452.11919,179.91291 19.87125,5.29666 2.25023,1.62717 v 23.3331 l -1.28094,1.6617 -21.2213,5.85053 -21.25597,-5.85053 -1.24562,-1.6617 v -23.3331 l 2.11167,-1.62717 19.83659,-5.29666 z m -0.31142,3.46185 -13.8475,3.46198 1.90402,0.69216 11.87427,3.11575 10.38566,-2.80409 3.28874,-1.00356 z m -19.10962,25.47958 17.30949,4.74281 v -19.83672 l -17.30949,-4.6389 z m 20.77134,-15.09391 v 19.83672 l 17.30948,-4.74281 v -19.83671 l -6.99304,1.91449 v 8.8866 l -3.46198,0.90021 v -8.83832 z"
       id="path37492"
       style="stroke-width:3.46189" />
    <g
       id="g1894"
       transform="matrix(0.26458333,0,0,0.26458333,32.528421,203.69737)">
      <path
         style="color:#000000;display:inline;overflow:visible;visibility:visible;opacity:1;fill:url(#linearGradient9521);fill-opacity:1;fill-rule:nonzero;stroke:none;stroke-width:1;stroke-linecap:butt;stroke-linejoin:miter;stroke-miterlimit:4;stroke-dasharray:none;stroke-dashoffset:0;stroke-opacity:1;marker:none;marker-start:none;marker-mid:none;marker-end:none"
         d="M 99.75,67.46875 C 71.718268,67.468752 73.46875,79.625 73.46875,79.625 L 73.5,92.21875 h 26.75 V 96 H 62.875 c 0,0 -17.9375,-2.034276 -17.9375,26.25 -2e-6,28.28427 15.65625,27.28125 15.65625,27.28125 h 9.34375 v -13.125 c 0,0 -0.503652,-15.65625 15.40625,-15.65625 15.9099,0 26.53125,0 26.53125,0 0,0 14.90625,0.24096 14.90625,-14.40625 0,-14.647206 0,-24.21875 0,-24.21875 0,-2e-6 2.26318,-14.65625 -27.03125,-14.65625 z M 85,75.9375 c 2.661429,-2e-6 4.8125,2.151071 4.8125,4.8125 2e-6,2.661429 -2.151071,4.8125 -4.8125,4.8125 -2.661429,2e-6 -4.8125,-2.151071 -4.8125,-4.8125 -2e-6,-2.661429 2.151071,-4.8125 4.8125,-4.8125 z"
         id="path8615" />
      <path
         id="path8620"
         d="m 100.5461,177.31485 c 28.03174,0 26.28125,-12.15625 26.28125,-12.15625 l -0.0312,-12.59375 h -26.75 v -3.78125 h 37.375 c 0,0 17.9375,2.03427 17.9375,-26.25001 10e-6,-28.284267 -15.65625,-27.281247 -15.65625,-27.281247 h -9.34375 v 13.124997 c 0,0 0.50366,15.65625 -15.40625,15.65625 -15.909902,0 -26.531252,0 -26.531252,0 0,0 -14.90625,-0.24096 -14.90625,14.40626 0,14.6472 0,24.21875 0,24.21875 0,0 -2.26318,14.65625 27.031252,14.65625 z m 14.75,-8.46875 c -2.66143,0 -4.8125,-2.15107 -4.8125,-4.8125 0,-2.66143 2.15107,-4.8125 4.8125,-4.8125 2.66143,0 4.8125,2.15107 4.8125,4.8125 1e-5,2.66143 -2.15107,4.8125 -4.8125,4.8125 z"
         style="color:#000000;display:inline;overflow:visible;visibility:visible;opacity:1;fill:url(#linearGradient11307);fill-opacity:1;fill-rule:nonzero;stroke:none;stroke-width:1;stroke-linecap:butt;stroke-linejoin:miter;stroke-miterlimit:4;stroke-dasharray:none;stroke-dashoffset:0;stroke-opacity:1;marker:none;marker-start:none;marker-mid:none;marker-end:none" />
    </g>
  </g>
  <style
     type="text/css"
     id="style1092">
	.st0{fill:#737373;}
	.st1{fill:#F25022;}
	.st2{fill:#7FBA00;}
	.st3{fill:#00A4EF;}
	.st4{fill:#FFB900;}
</style>
  <style
     type="text/css"
     id="style2536">
	.st0{fill:#FAFAFA;}
	.st1{fill:#F0F0F0;}
	.st2{fill:#FFFFFF;}
	.st3{fill:#E24329;}
	.st4{fill:#FCA326;}
	.st5{fill:#FC6D26;}
	.st6{fill:#8C929D;}
	.st7{fill:#2E2E2E;}
	.st8{fill:none;stroke:#FCA326;stroke-width:16;stroke-linecap:round;stroke-linejoin:round;stroke-miterlimit:10;}
	.st9{fill:none;stroke:#FC6D26;stroke-width:16;stroke-linecap:round;stroke-linejoin:round;stroke-miterlimit:10;}
	.st10{fill:none;stroke:#E24329;stroke-width:16;stroke-linecap:round;stroke-linejoin:round;stroke-miterlimit:10;}
	.st11{fill:none;stroke:#F0F0F0;stroke-miterlimit:10;}
	.st12{fill:#231F20;}
	.st13{fill:none;stroke:#231F20;stroke-width:16;stroke-linecap:round;stroke-linejoin:round;stroke-miterlimit:10;}
	.st14{display:none;}
	.st15{display:inline;opacity:0.1;fill:#E828E3;}
	.st16{display:inline;}
	.st17{opacity:0.1;fill:#E828E3;}
	.st18{font-family:'SourceSansPro-Semibold';}
	.st19{font-size:24px;}
	.st20{display:inline;fill:#DB3B21;}
	.st21{display:inline;fill:#FC6D26;}
	.st22{display:inline;fill:#2E2E2E;}
	.st23{display:inline;fill:#6E49CB;}
	.st24{display:inline;fill:#380D75;}
	.st25{display:inline;fill:#FCA121;}
	.st26{opacity:0.6;fill:none;stroke:#231F20;stroke-width:2;stroke-miterlimit:10;stroke-dasharray:12,6;}
	.st27{fill:none;stroke:#444444;stroke-width:1.5339;stroke-miterlimit:10;}
</style>
</svg>
