<?xml version="1.0" encoding="UTF-8" standalone="no"?>
<!-- Created with Inkscape (http://www.inkscape.org/) -->

<svg
   width="185.42255mm"
   height="88.366791mm"
   viewBox="0 0 185.42255 88.366788"
   version="1.1"
   id="svg162655"
   inkscape:version="1.2.2 (b0a8486541, 2022-12-01)"
   sodipodi:docname="github_workflow.svg"
   xmlns:inkscape="http://www.inkscape.org/namespaces/inkscape"
   xmlns:sodipodi="http://sodipodi.sourceforge.net/DTD/sodipodi-0.dtd"
   xmlns="http://www.w3.org/2000/svg"
   xmlns:svg="http://www.w3.org/2000/svg">
  <sodipodi:namedview
     id="namedview162657"
     pagecolor="#ffffff"
     bordercolor="#666666"
     borderopacity="1.0"
     inkscape:showpageshadow="2"
     inkscape:pageopacity="0.0"
     inkscape:pagecheckerboard="0"
     inkscape:deskcolor="#d1d1d1"
     inkscape:document-units="mm"
     showgrid="false"
     inkscape:zoom="0.95497112"
     inkscape:cx="498.96797"
     inkscape:cy="284.30179"
     inkscape:window-width="1916"
     inkscape:window-height="1036"
     inkscape:window-x="0"
     inkscape:window-y="20"
     inkscape:window-maximized="1"
     inkscape:current-layer="layer1" />
  <defs
     id="defs162652">
    <marker
       style="overflow:visible"
       id="Arrow2"
       refX="0"
       refY="0"
       orient="auto-start-reverse"
       inkscape:stockid="Arrow2"
       markerWidth="7.6999998"
       markerHeight="5.5999999"
       viewBox="0 0 7.7 5.6"
       inkscape:isstock="true"
       inkscape:collect="always"
       preserveAspectRatio="xMidYMid">
      <path
         transform="scale(0.7)"
         d="M -2,-4 9,0 -2,4 c 2,-2.33 2,-5.66 0,-8 z"
         style="fill:context-stroke;fill-rule:evenodd;stroke:none"
         id="arrow2L" />
    </marker>
  </defs>
  <g
     inkscape:label="Layer 1"
     inkscape:groupmode="layer"
     id="layer1"
     transform="translate(-40.578253,-43.323065)">
    <path
       d="m 86.335955,62.562309 c 0,0.07514 -0.08631,0.135036 -0.195163,0.135036 -0.123846,0.01102 -0.210176,-0.04887 -0.210176,-0.135036 0,-0.07496 0.08631,-0.135035 0.195165,-0.135035 0.112603,-0.01102 0.210174,0.04887 0.210174,0.135035 z m -1.167224,-0.16884 c -0.02627,0.07496 0.0488,0.161308 0.161381,0.183906 0.09758,0.03748 0.210176,0 0.232693,-0.07514 0.02252,-0.07496 -0.0488,-0.161308 -0.161381,-0.195167 -0.09758,-0.02627 -0.206423,0.01102 -0.232695,0.08635 z m 1.658884,-0.06375 c -0.108837,0.02627 -0.183904,0.09756 -0.172644,0.183906 0.01139,0.07514 0.108837,0.123829 0.221437,0.09756 0.108836,-0.02627 0.183903,-0.09756 0.172643,-0.172698 -0.01139,-0.07128 -0.112603,-0.120154 -0.221436,-0.108764 z m 2.469562,-14.382006 c -5.205595,0 -9.187667,3.95206 -9.187667,9.157654 0,4.162219 2.619685,7.723944 6.361557,8.977478 0.480402,0.08635 0.649292,-0.210178 0.649292,-0.454124 0,-0.232702 -0.01139,-1.516275 -0.01139,-2.304423 0,0 -2.627192,0.56296 -3.178901,-1.118425 0,0 -0.427859,-1.092172 -1.043371,-1.373652 0,0 -0.859468,-0.589251 0.06006,-0.577989 0,0 0.934531,0.07496 1.44871,0.968306 0.821935,1.44872 2.199335,1.032113 2.736032,0.784419 0.08631,-0.600514 0.330277,-1.017103 0.600501,-1.264815 -2.098001,-0.232684 -4.214766,-0.536689 -4.214766,-4.147209 0,-1.032113 0.285237,-1.550044 0.885738,-2.210597 -0.09757,-0.243946 -0.416597,-1.249787 0.09758,-2.54837 0.784406,-0.243964 2.589661,1.013337 2.589661,1.013337 0.750627,-0.210178 1.55755,-0.319015 2.356966,-0.319015 0.799418,0 1.606341,0.108763 2.356968,0.319015 0,0 1.805255,-1.261049 2.589661,-1.013337 0.514177,1.302331 0.195162,2.304424 0.09758,2.54837 0.6005,0.664301 0.968306,1.182232 0.968306,2.210597 0,3.621764 -2.210593,3.910759 -4.308594,4.147209 0.345288,0.29649 0.638033,0.859469 0.638033,1.741463 0,1.264796 -0.01139,2.82985 -0.01139,3.137602 0,0.243965 0.172643,0.540455 0.649292,0.454142 3.753131,-1.246038 6.297754,-4.807763 6.297754,-8.969982 0,-5.205594 -4.222272,-9.157654 -9.427867,-9.157654 z m -5.539623,12.944548 c -0.0488,0.03748 -0.03753,0.123829 0.02629,0.195168 0.06006,0.06008 0.146371,0.08635 0.19516,0.03748 0.0488,-0.03748 0.03753,-0.123829 -0.02627,-0.195168 -0.06006,-0.06008 -0.146371,-0.08635 -0.195163,-0.03748 z m -0.405338,-0.304005 c -0.02627,0.04887 0.01139,0.108764 0.08631,0.146427 0.06006,0.03748 0.135109,0.02627 0.161382,-0.02627 0.02627,-0.04887 -0.01139,-0.108764 -0.08631,-0.146427 -0.07505,-0.0226 -0.135109,-0.01102 -0.161382,0.02627 z m 1.216013,1.336118 c -0.06006,0.04887 -0.03753,0.161308 0.0488,0.232702 0.08631,0.08635 0.195162,0.09756 0.243953,0.03748 0.0488,-0.04887 0.02627,-0.161308 -0.0488,-0.232702 -0.08257,-0.08635 -0.195162,-0.09756 -0.243953,-0.03748 z m -0.427856,-0.551699 c -0.06006,0.03748 -0.06006,0.135036 0,0.221422 0.06004,0.08635 0.161382,0.123829 0.210175,0.08635 0.06006,-0.04887 0.06006,-0.146426 0,-0.232683 -0.05253,-0.08635 -0.15012,-0.123829 -0.210175,-0.07514 z"
       id="path166367"
       style="stroke-width:0.0375313" />
    <path
       style="fill:none;stroke:#000000;stroke-width:1.05833;stroke-linecap:butt;stroke-linejoin:miter;stroke-dasharray:none;stroke-opacity:1"
       d="m 42.783753,109.82121 96.369057,6e-5"
       id="path170728"
       sodipodi:nodetypes="cc" />
    <text
       xml:space="preserve"
       style="font-size:7.05556px;line-height:1.25;font-family:Poppins;-inkscape-font-specification:Poppins;stroke-width:0.264583"
       x="76.475822"
       y="120.04469"
       id="text170732"><tspan
         sodipodi:role="line"
         id="tspan170730"
         style="font-size:7.05556px;stroke-width:0.264583"
         x="76.475822"
         y="120.04469">main</tspan></text>
    <text
       xml:space="preserve"
       style="font-size:7.05556px;line-height:1.25;font-family:Poppins;-inkscape-font-specification:Poppins;stroke-width:0.264583"
       x="68.250107"
       y="78.72364"
       id="text170732-4"><tspan
         sodipodi:role="line"
         id="tspan170730-5"
         style="font-size:7.05556px;stroke-width:0.264583"
         x="68.250107"
         y="78.72364">feature-XYZ</tspan></text>
    <path
       style="fill:none;stroke:#000000;stroke-width:1.05833;stroke-linecap:butt;stroke-linejoin:miter;stroke-dasharray:none;stroke-opacity:1"
       d="m 58.884802,109.82121 c 7.948513,0 7.688805,-22.487001 21.245884,-22.487001 h 16.30556"
       id="path172226"
       sodipodi:nodetypes="ccc" />
    <path
       style="fill:none;stroke:#000000;stroke-width:1.05833;stroke-linecap:butt;stroke-linejoin:miter;stroke-dasharray:2.11666, 2.11666;stroke-dashoffset:0;stroke-opacity:1;marker-start:url(#Arrow2)"
       d="M 120.10412,106.26148 C 110.61428,100.36462 112.25531,87.334209 98.698216,87.334209"
       id="path172226-0"
       sodipodi:nodetypes="cc" />
    <circle
       style="fill:#ffffff;fill-opacity:1;stroke:#000000;stroke-width:1.05833;stroke-dasharray:none;stop-color:#000000"
       id="path170786-8"
       cx="95.761131"
       cy="87.453964"
       r="2.391181" />
    <circle
       style="fill:#ffffff;fill-opacity:1;stroke:#000000;stroke-width:1.05833;stroke-dasharray:none;stop-color:#000000"
       id="path170786"
       cx="58.814121"
       cy="109.92374"
       r="2.391181" />
    <circle
       style="fill:#ffffff;fill-opacity:1;stroke:#000000;stroke-width:1.05833;stroke-dasharray:none;stop-color:#000000"
       id="path170786-7"
       cx="78.359001"
       cy="87.266464"
       r="2.391181" />
    <path
       fill-rule="evenodd"
       clip-rule="evenodd"
       d="m 129.93527,91.68898 a 2.2277319,2.2277319 0 0 1 -1.00234,0.825879 c -0.13258,0.05376 -0.41025,0.123605 -0.41025,0.123605 v 4.485918 a 2.2483341,2.2483341 0 0 1 1.41439,0.951289 c 0.24453,0.369048 0.37532,0.801697 0.37532,1.2433 0.007,0.307235 -0.0511,0.612693 -0.17019,0.895749 a 2.2259404,2.2259404 0 0 1 -2.10233,1.37767 2.2232531,2.2232531 0 0 1 -1.2433,-0.37532 2.2277319,2.2277319 0 0 1 -0.95129,-2.297603 c 0.0851,-0.435333 0.2965,-0.834838 0.60911,-1.149247 0.31262,-0.307235 0.70764,-0.51864 1.13671,-0.609112 v -4.557579 a 2.3289517,2.3289517 0 0 1 -1.13671,-0.609108 2.2420638,2.2420638 0 0 1 -0.60911,-1.14925 2.2277319,2.2277319 0 0 1 0.9495,-2.2976 2.2304191,2.2304191 0 0 1 1.24509,-0.377112 2.2429596,2.2429596 0 0 1 1.61862,0.653005 2.2331064,2.2331064 0 0 1 0.653,1.621305 c 0.002,0.442504 -0.12898,0.876046 -0.37621,1.244201 z m -0.67718,7.041494 a 1.343626,1.343626 0 0 0 -0.49446,-0.518641 1.2988384,1.2988384 0 0 0 -0.68972,-0.188099 1.3391472,1.3391472 0 0 0 -1.31676,1.603393 1.3373557,1.3373557 0 0 0 1.05699,1.056093 c 0.25797,0.052 0.52491,0.0267 0.77034,-0.0717 0.24725,-0.10482 0.45863,-0.27948 0.60911,-0.50162 0.13437,-0.202454 0.21051,-0.438919 0.22304,-0.680773 a 1.3525835,1.3525835 0 0 0 -0.15854,-0.698687 z m -1.92766,-7.208999 c 0.22125,0.144223 0.48012,0.223918 0.74348,0.223918 0.24274,0 0.48191,-0.06717 0.68972,-0.189014 a 1.3561665,1.3561665 0 0 0 0.653,-1.217322 1.3552707,1.3552707 0 0 0 -0.22395,-0.680773 1.3893092,1.3893092 0 0 0 -0.60911,-0.501618 1.3346685,1.3346685 0 0 0 -0.77034,-0.07167 1.3382515,1.3382515 0 0 0 -1.05609,1.056984 c -0.052,0.257976 -0.0267,0.524911 0.0717,0.770347 0.10481,0.247244 0.27947,0.458625 0.50162,0.609111 z m 9.25221,2.023498 h -0.89753 v -1.352584 a 1.343626,1.343626 0 0 0 -1.34364,-1.343626 h -1.65534 l 1.13671,1.137604 -0.63597,0.635088 -1.90707,-1.907053 v -0.627024 l 1.90795,-1.907951 0.63597,0.63688 -1.13669,1.137603 h 1.65714 a 2.2250446,2.2250446 0 0 1 2.07096,1.380353 c 0.11206,0.270502 0.16927,0.56253 0.16758,0.857232 v 1.353478 z m -0.0339,8.061757 H 135.653 v -2.687253 h -2.68725 v -0.89575 h 2.68725 v -2.687252 h 0.89574 v 2.687252 h 2.68725 v 0.89575 h -2.68725 z"
       id="path175065"
       style="stroke-width:0.89575" />
    <rect
       style="fill:none;fill-opacity:1;stroke:#000000;stroke-width:0.79375;stroke-dasharray:1.5875, 1.5875;stroke-dashoffset:0;stroke-opacity:1;stop-color:#000000"
       id="rect200276"
       width="184.62663"
       height="87.573044"
       x="40.975758"
       y="43.71994"
       ry="6.8683019" />
  </g>
</svg>
