<?xml version="1.0" encoding="UTF-8" standalone="no"?>
<!-- Created with Inkscape (http://www.inkscape.org/) -->

<svg
   width="2394.8616"
   height="1023.9666"
   viewBox="0 0 633.64046 270.9245"
   version="1.1"
   id="svg5"
   inkscape:version="1.2.2 (b0a8486541, 2022-12-01)"
   sodipodi:docname="initial_setup.svg"
   xmlns:inkscape="http://www.inkscape.org/namespaces/inkscape"
   xmlns:sodipodi="http://sodipodi.sourceforge.net/DTD/sodipodi-0.dtd"
   xmlns="http://www.w3.org/2000/svg"
   xmlns:svg="http://www.w3.org/2000/svg"
   xmlns:sketch="http://www.bohemiancoding.com/sketch/ns">
  <sodipodi:namedview
     id="namedview7"
     pagecolor="#ffffff"
     bordercolor="#666666"
     borderopacity="1.0"
     inkscape:pageshadow="2"
     inkscape:pageopacity="0.0"
     inkscape:pagecheckerboard="0"
     inkscape:document-units="mm"
     showgrid="false"
     units="px"
     inkscape:zoom="0.57370932"
     inkscape:cx="1169.5818"
     inkscape:cy="605.70743"
     inkscape:window-width="1916"
     inkscape:window-height="1036"
     inkscape:window-x="0"
     inkscape:window-y="20"
     inkscape:window-maximized="1"
     inkscape:current-layer="layer1"
     showguides="false"
     fit-margin-top="0"
     fit-margin-left="0"
     fit-margin-right="0"
     fit-margin-bottom="0"
     inkscape:showpageshadow="2"
     inkscape:deskcolor="#d1d1d1" />
  <defs
     id="defs2">
    <marker
       style="overflow:visible"
       id="Arrow1L"
       refX="0"
       refY="0"
       orient="auto-start-reverse"
       inkscape:stockid="Arrow1L"
       markerWidth="8.75"
       markerHeight="5"
       viewBox="0 0 8.75 5"
       inkscape:isstock="true"
       inkscape:collect="always"
       preserveAspectRatio="xMidYMid">
      <path
         style="fill:context-stroke;fill-rule:evenodd;stroke:none"
         d="M 0,0 5,-5 -12.5,0 5,5 Z"
         id="arrow1L"
         transform="scale(-0.5)" />
    </marker>
    <marker
       style="overflow:visible"
       id="Arrow1Mend"
       refX="0"
       refY="0"
       orient="auto"
       inkscape:stockid="Arrow1Mend"
       inkscape:isstock="true"
       viewBox="0 0 8.886927 5.078244"
       markerWidth="8.8869267"
       markerHeight="5.0782442"
       preserveAspectRatio="xMidYMid">
      <path
         transform="matrix(-0.4,0,0,-0.4,-4,0)"
         style="fill:context-stroke;fill-rule:evenodd;stroke:context-stroke;stroke-width:1pt"
         d="M 0,0 5,-5 -12.5,0 5,5 Z"
         id="path1406" />
    </marker>
    <marker
       style="overflow:visible"
       id="Arrow1Lstart"
       refX="0"
       refY="0"
       orient="auto"
       inkscape:stockid="Arrow1Lstart"
       inkscape:isstock="true">
      <path
         transform="matrix(0.8,0,0,0.8,10,0)"
         style="fill:context-stroke;fill-rule:evenodd;stroke:context-stroke;stroke-width:1pt"
         d="M 0,0 5,-5 -12.5,0 5,5 Z"
         id="path1397" />
    </marker>
    <marker
       style="overflow:visible"
       id="Arrow1Mend-2"
       refX="0"
       refY="0"
       orient="auto"
       inkscape:stockid="Arrow1Mend"
       inkscape:isstock="true">
      <path
         transform="matrix(-0.4,0,0,-0.4,-4,0)"
         style="fill:context-stroke;fill-rule:evenodd;stroke:context-stroke;stroke-width:1pt"
         d="M 0,0 5,-5 -12.5,0 5,5 Z"
         id="path1406-9" />
    </marker>
    <marker
       style="overflow:visible"
       id="Arrow1Mend-9"
       refX="0"
       refY="0"
       orient="auto"
       inkscape:stockid="Arrow1Mend"
       inkscape:isstock="true">
      <path
         transform="matrix(-0.4,0,0,-0.4,-4,0)"
         style="fill:context-stroke;fill-rule:evenodd;stroke:context-stroke;stroke-width:1pt"
         d="M 0,0 5,-5 -12.5,0 5,5 Z"
         id="path1406-3" />
    </marker>
    <marker
       style="overflow:visible"
       id="Arrow1Mend-26"
       refX="0"
       refY="0"
       orient="auto"
       inkscape:stockid="Arrow1Mend"
       inkscape:isstock="true">
      <path
         transform="matrix(-0.4,0,0,-0.4,-4,0)"
         style="fill:context-stroke;fill-rule:evenodd;stroke:context-stroke;stroke-width:1pt"
         d="M 0,0 5,-5 -12.5,0 5,5 Z"
         id="path1406-1" />
    </marker>
    <marker
       style="overflow:visible"
       id="Arrow1Mend-7"
       refX="0"
       refY="0"
       orient="auto"
       inkscape:stockid="Arrow1Mend"
       inkscape:isstock="true">
      <path
         transform="matrix(-0.4,0,0,-0.4,-4,0)"
         style="fill:context-stroke;fill-rule:evenodd;stroke:context-stroke;stroke-width:1pt"
         d="M 0,0 5,-5 -12.5,0 5,5 Z"
         id="path1406-36" />
    </marker>
    <marker
       style="overflow:visible"
       id="Arrow1Mend-7-2"
       refX="0"
       refY="0"
       orient="auto"
       inkscape:stockid="Arrow1Mend"
       inkscape:isstock="true">
      <path
         transform="matrix(-0.4,0,0,-0.4,-4,0)"
         style="fill:context-stroke;fill-rule:evenodd;stroke:context-stroke;stroke-width:1pt"
         d="M 0,0 5,-5 -12.5,0 5,5 Z"
         id="path1406-36-9" />
    </marker>
    <marker
       style="overflow:visible"
       id="Arrow1Mend-7-2-1"
       refX="0"
       refY="0"
       orient="auto"
       inkscape:stockid="Arrow1Mend"
       inkscape:isstock="true">
      <path
         transform="matrix(-0.4,0,0,-0.4,-4,0)"
         style="fill:context-stroke;fill-rule:evenodd;stroke:context-stroke;stroke-width:1pt"
         d="M 0,0 5,-5 -12.5,0 5,5 Z"
         id="path1406-36-9-9" />
    </marker>
    <marker
       style="overflow:visible"
       id="Arrow1Mend-7-2-1-5"
       refX="0"
       refY="0"
       orient="auto"
       inkscape:stockid="Arrow1Mend"
       inkscape:isstock="true">
      <path
         transform="matrix(-0.4,0,0,-0.4,-4,0)"
         style="fill:context-stroke;fill-rule:evenodd;stroke:context-stroke;stroke-width:1pt"
         d="M 0,0 5,-5 -12.5,0 5,5 Z"
         id="path1406-36-9-9-0" />
    </marker>
    <marker
       style="overflow:visible"
       id="Arrow1Mend-26-6"
       refX="0"
       refY="0"
       orient="auto"
       inkscape:stockid="Arrow1Mend"
       inkscape:isstock="true">
      <path
         transform="matrix(-0.4,0,0,-0.4,-4,0)"
         style="fill:context-stroke;fill-rule:evenodd;stroke:context-stroke;stroke-width:1pt"
         d="M 0,0 5,-5 -12.5,0 5,5 Z"
         id="path1406-1-1" />
    </marker>
    <marker
       style="overflow:visible"
       id="Arrow1Mend-26-6-6"
       refX="0"
       refY="0"
       orient="auto"
       inkscape:stockid="Arrow1Mend"
       inkscape:isstock="true">
      <path
         transform="matrix(-0.4,0,0,-0.4,-4,0)"
         style="fill:context-stroke;fill-rule:evenodd;stroke:context-stroke;stroke-width:1pt"
         d="M 0,0 5,-5 -12.5,0 5,5 Z"
         id="path1406-1-1-3" />
    </marker>
    <marker
       style="overflow:visible"
       id="Arrow1Mend-26-6-6-0"
       refX="0"
       refY="0"
       orient="auto"
       inkscape:stockid="Arrow1Mend"
       inkscape:isstock="true">
      <path
         transform="matrix(-0.4,0,0,-0.4,-4,0)"
         style="fill:context-stroke;fill-rule:evenodd;stroke:context-stroke;stroke-width:1pt"
         d="M 0,0 5,-5 -12.5,0 5,5 Z"
         id="path1406-1-1-3-6" />
    </marker>
    <marker
       style="overflow:visible"
       id="Arrow1Mend-26-6-6-0-5"
       refX="0"
       refY="0"
       orient="auto"
       inkscape:stockid="Arrow1Mend"
       inkscape:isstock="true">
      <path
         transform="matrix(-0.4,0,0,-0.4,-4,0)"
         style="fill:context-stroke;fill-rule:evenodd;stroke:context-stroke;stroke-width:1pt"
         d="M 0,0 5,-5 -12.5,0 5,5 Z"
         id="path1406-1-1-3-6-5" />
    </marker>
    <marker
       style="overflow:visible"
       id="marker36761"
       refX="0"
       refY="0"
       orient="auto"
       inkscape:stockid="Arrow1Mend"
       inkscape:isstock="true">
      <path
         transform="matrix(-0.4,0,0,-0.4,-4,0)"
         style="fill:context-stroke;fill-rule:evenodd;stroke:context-stroke;stroke-width:1pt"
         d="M 0,0 5,-5 -12.5,0 5,5 Z"
         id="path36759" />
    </marker>
    <marker
       style="overflow:visible"
       id="marker54824"
       refX="0"
       refY="0"
       orient="auto"
       inkscape:stockid="Arrow1Mend"
       inkscape:isstock="true">
      <path
         transform="matrix(-0.4,0,0,-0.4,-4,0)"
         style="fill:context-stroke;fill-rule:evenodd;stroke:context-stroke;stroke-width:1pt"
         d="M 0,0 5,-5 -12.5,0 5,5 Z"
         id="path54822" />
    </marker>
    <marker
       style="overflow:visible"
       id="Arrow1L-3"
       refX="0"
       refY="0"
       orient="auto-start-reverse"
       inkscape:stockid="Arrow1L"
       markerWidth="8.75"
       markerHeight="5"
       viewBox="0 0 8.75 5"
       inkscape:isstock="true"
       inkscape:collect="always"
       preserveAspectRatio="xMidYMid">
      <path
         style="fill:context-stroke;fill-rule:evenodd;stroke:none"
         d="M 0,0 5,-5 -12.5,0 5,5 Z"
         id="arrow1L-5"
         transform="scale(-0.5)" />
    </marker>
  </defs>
  <g
     inkscape:label="Layer 1"
     inkscape:groupmode="layer"
     id="layer1"
     transform="translate(-11.063989,-3.6499902)">
    <g
       id="g1148"
       transform="matrix(0.74219483,0,0,0.74219483,-102.2588,-1.134736)">
      <rect
         style="fill:#4d4d4d;stroke-width:1.70238;stop-color:#000000"
         id="rect965"
         width="242.33167"
         height="110.54924"
         x="294.02011"
         y="6.4467254"
         ry="5.6140432" />
      <g
         id="g941"
         transform="matrix(0.26458333,0,0,0.26458333,312.97771,16.221714)">
        <polygon
           style="fill:#d1d1d1;fill-opacity:1"
           transform="matrix(2.0000857,0,0,2.0000857,-438.1392,-540.63359)"
           id="polygon3"
           points="398.301,371.71 401.084,412.447 352,431.495 352,351.495 352,347.686 352,275.305 360,286.733 360,351.486 " />
        <g
           transform="matrix(2.0000857,0,0,2.0000857,-438.1392,-540.63359)"
           id="g5">
          <polygon
             style="fill:#d1d1d1;fill-opacity:1"
             id="polygon7"
             points="314,355.288 321,353.887 321,298.733 314,286.908 " />
          <polygon
             style="fill:#d1d1d1;fill-opacity:1"
             id="polygon9"
             points="276,362.891 283.018,361.486 283.018,309.644 276.018,298.215 " />
          <polygon
             style="fill:#cecece"
             id="polygon11"
             points="333,286.733 333,351.486 326,352.887 317,354.688 314,355.288 314,286.733 295,298.162 295,359.09 287,360.69 278,362.49 276,362.891 276,298.162 257,309.59 257,366.692 231.738,371.71 224.06,412.447 278,420.478 334.937,428.955 352,431.495 352,375.123 352,351.495 352,347.686 352,275.305 " />
        </g>
        <polygon
           style="fill:#ffffff;fill-opacity:1"
           transform="matrix(2.0000857,0,0,2.0000857,-438.1392,-540.63359)"
           id="polygon13"
           points="314,355.288 314,286.733 295,298.162 295,359.09 276,362.891 276,298.162 257,309.59 257,366.692 231.738,371.71 224.06,412.447 352,431.495 352,351.495 352,347.686 352,275.305 333,286.733 333,351.486 " />
        <g
           id="flowRoot4528"
           style="font-style:normal;font-weight:normal;font-size:40px;line-height:125%;font-family:sans-serif;letter-spacing:0px;word-spacing:0px;fill:#000000;fill-opacity:1;stroke:none;stroke-width:1px;stroke-linecap:butt;stroke-linejoin:miter;stroke-opacity:1"
           transform="matrix(1.1567335,0,0,1.1698648,-45.50874,19.7431)"
           aria-label="Open Build Service">
          <path
             id="path117"
             style="font-style:normal;font-variant:normal;font-weight:bold;font-stretch:normal;font-size:80px;line-height:95.6%;font-family:Roboto;-inkscape-font-specification:'Roboto, Bold';font-variant-ligatures:normal;font-variant-caps:normal;font-variant-numeric:normal;font-feature-settings:normal;text-align:start;writing-mode:lr-tb;text-anchor:start;fill:#ffffff"
             d="m 427.70117,52.100471 v 2.539062 q 0,13.007813 -6.75781,20.46875 -6.71875,7.460938 -17.42188,7.460938 -10.70312,0 -17.5,-7.460938 -6.79687,-7.460937 -6.79687,-20.46875 v -2.539062 q 0,-13.007813 6.75781,-20.46875 6.75781,-7.5 17.46094,-7.5 10.70312,0 17.46094,7.5 6.79687,7.460937 6.79687,20.46875 z m -11.875,2.539062 v -2.617187 q 0,-8.90625 -3.24219,-13.554688 -3.24218,-4.648437 -9.14062,-4.648437 -5.9375,0 -9.14063,4.648437 -3.20312,4.648438 -3.20312,13.554688 v 2.617187 q 0,8.867188 3.24219,13.59375 3.24218,4.6875 9.17968,4.6875 5.9375,0 9.10157,-4.6875 3.20312,-4.726562 3.20312,-13.59375 z" />
          <path
             id="path119"
             style="font-style:normal;font-variant:normal;font-weight:bold;font-stretch:normal;font-size:80px;line-height:95.6%;font-family:Roboto;-inkscape-font-specification:'Roboto, Bold';font-variant-ligatures:normal;font-variant-caps:normal;font-variant-numeric:normal;font-feature-settings:normal;text-align:start;writing-mode:lr-tb;text-anchor:start;fill:#ffffff"
             d="m 457.19336,82.569221 q -6.32813,0 -10.35156,-4.492188 V 98.037971 H 435.51367 V 39.522346 h 10.50781 l 0.42969,4.101562 q 4.02344,-4.882812 10.625,-4.882812 8.04688,0 12.26563,5.898437 4.25781,5.898438 4.25781,15.546875 v 0.820313 q 0,9.21875 -4.25781,15.390625 -4.21875,6.171875 -12.14844,6.171875 z m -3.04688,-34.6875 q -5.27343,0 -7.30468,4.101562 v 17.304688 q 2.10937,4.179687 7.38281,4.179687 4.41406,0 6.25,-3.671875 1.83594,-3.671875 1.83594,-8.789062 v -0.820313 q 0,-5.234375 -1.91407,-8.75 -1.875,-3.554687 -6.25,-3.554687 z" />
          <path
             id="path121"
             style="font-style:normal;font-variant:normal;font-weight:bold;font-stretch:normal;font-size:80px;line-height:95.6%;font-family:Roboto;-inkscape-font-specification:'Roboto, Bold';font-variant-ligatures:normal;font-variant-caps:normal;font-variant-numeric:normal;font-feature-settings:normal;text-align:start;writing-mode:lr-tb;text-anchor:start;fill:#ffffff"
             d="m 516.49023,74.912971 q -2.03125,2.890625 -6.17187,5.273437 -4.14063,2.382813 -10.3125,2.382813 -9.88281,0 -15.42969,-5.976563 -5.54687,-6.015625 -5.54687,-14.492187 v -1.523438 q 0,-9.570312 5.3125,-15.703125 5.35156,-6.132812 14.41406,-6.132812 9.10156,0 13.86719,5.703125 4.76562,5.703125 4.76562,15.078125 v 4.804687 h -26.91406 q 0.58594,4.101563 3.24219,6.640625 2.65625,2.5 6.99218,2.5 6.44532,0 10.19532,-4.726562 z m -17.8125,-27.070313 q -3.59375,0 -5.54687,2.421875 -1.95313,2.421875 -2.53906,6.328125 h 15.70312 v -0.859375 q -0.0781,-3.398437 -1.91406,-5.625 -1.79688,-2.265625 -5.70313,-2.265625 z" />
          <path
             id="path123"
             style="font-style:normal;font-variant:normal;font-weight:bold;font-stretch:normal;font-size:80px;line-height:95.6%;font-family:Roboto;-inkscape-font-specification:'Roboto, Bold';font-variant-ligatures:normal;font-variant-caps:normal;font-variant-numeric:normal;font-feature-settings:normal;text-align:start;writing-mode:lr-tb;text-anchor:start;fill:#ffffff"
             d="m 542.03711,47.881721 q -4.80469,0 -7.14844,4.0625 v 29.84375 H 523.59961 V 39.522346 h 10.58594 l 0.39062,4.84375 q 4.53125,-5.625 12.14844,-5.625 6.01562,0 9.6875,3.59375 3.67187,3.59375 3.67187,12.539062 V 81.787971 H 548.75586 V 54.834846 q 0,-4.0625 -1.75781,-5.507813 -1.71875,-1.445312 -4.96094,-1.445312 z" />
          <path
             id="path125"
             style="font-style:normal;font-variant:normal;font-weight:bold;font-stretch:normal;font-size:80px;line-height:95.6%;font-family:Roboto;-inkscape-font-specification:'Roboto, Bold';font-variant-ligatures:normal;font-variant-caps:normal;font-variant-numeric:normal;font-feature-settings:normal;text-align:start;writing-mode:lr-tb;text-anchor:start;fill:#ffffff"
             d="m 423.20898,141.51015 q 0,8.28125 -5.35156,12.53907 -5.3125,4.21875 -15.15625,4.21875 h -21.75781 v -56.875 h 19.96094 q 9.88281,0 15.46875,3.78906 5.58593,3.78906 5.58593,11.75781 0,3.86719 -1.95312,7.10938 -1.95313,3.24218 -6.17188,4.92187 5,1.25 7.1875,4.84375 2.1875,3.59375 2.1875,7.69531 z m -30.50781,-30.625 v 14.29688 h 8.20313 q 9.29687,0 9.29687,-7.03125 0,-7.26563 -9.29687,-7.26563 z m 18.78906,30.50782 q 0,-3.67188 -1.95312,-5.78125 -1.91406,-2.14844 -6.36719,-2.14844 h -10.46875 v 15.35156 h 10 q 4.49219,0 6.64063,-2.10937 2.14843,-2.10938 2.14843,-5.3125 z" />
          <path
             id="path127"
             style="font-style:normal;font-variant:normal;font-weight:bold;font-stretch:normal;font-size:80px;line-height:95.6%;font-family:Roboto;-inkscape-font-specification:'Roboto, Bold';font-variant-ligatures:normal;font-variant-caps:normal;font-variant-numeric:normal;font-feature-settings:normal;text-align:start;writing-mode:lr-tb;text-anchor:start;fill:#ffffff"
             d="m 456.95898,158.26797 -0.3125,-4.33594 q -4.14062,5.11719 -11.5625,5.11719 -6.25,0 -10.15625,-3.67188 -3.86718,-3.67187 -3.86718,-12.03125 v -27.34375 h 11.28906 v 27.42188 q 0,3.51562 1.67969,5 1.67968,1.44531 4.29687,1.44531 3.08594,0 5,-1.05469 1.91406,-1.09375 2.92969,-2.96875 v -29.84375 h 11.32812 v 42.26563 z" />
          <path
             id="path129"
             style="font-style:normal;font-variant:normal;font-weight:bold;font-stretch:normal;font-size:80px;line-height:95.6%;font-family:Roboto;-inkscape-font-specification:'Roboto, Bold';font-variant-ligatures:normal;font-variant-caps:normal;font-variant-numeric:normal;font-feature-settings:normal;text-align:start;writing-mode:lr-tb;text-anchor:start;fill:#ffffff"
             d="m 476.06055,105.06484 q 0,-2.53906 1.71875,-4.17969 1.71875,-1.679683 4.60937,-1.679683 2.89063,0 4.60938,1.679683 1.71875,1.64063 1.71875,4.17969 0,2.5 -1.71875,4.17969 -1.71875,1.64062 -4.60938,1.64062 -2.89062,0 -4.60937,-1.64062 -1.71875,-1.67969 -1.71875,-4.17969 z m 12.03125,10.9375 v 42.26563 h -11.32813 v -42.26563 z" />
          <path
             id="path131"
             style="font-style:normal;font-variant:normal;font-weight:bold;font-stretch:normal;font-size:80px;line-height:95.6%;font-family:Roboto;-inkscape-font-specification:'Roboto, Bold';font-variant-ligatures:normal;font-variant-caps:normal;font-variant-numeric:normal;font-feature-settings:normal;text-align:start;writing-mode:lr-tb;text-anchor:start;fill:#ffffff"
             d="M 509.3418,98.267967 V 158.26797 H 498.01367 V 98.267967 Z" />
          <path
             id="path133"
             style="font-style:normal;font-variant:normal;font-weight:bold;font-stretch:normal;font-size:80px;line-height:95.6%;font-family:Roboto;-inkscape-font-specification:'Roboto, Bold';font-variant-ligatures:normal;font-variant-caps:normal;font-variant-numeric:normal;font-feature-settings:normal;text-align:start;writing-mode:lr-tb;text-anchor:start;fill:#ffffff"
             d="m 544.77148,158.26797 -0.54687,-4.49219 q -1.95313,2.46094 -4.64844,3.86719 -2.65625,1.40625 -6.17187,1.40625 -7.85157,0 -12.1875,-6.09375 -4.33594,-6.09375 -4.33594,-15.3125 v -0.82032 q 0,-9.64843 4.33594,-15.625 4.33593,-5.97656 12.26562,-5.97656 6.17188,0 10.15625,4.57031 V 98.267967 h 11.32813 v 60.000003 z m -16.5625,-20.625 q 0,5.07812 1.79688,8.67187 1.79687,3.55469 6.25,3.55469 5.15625,0 7.38281,-4.375 v -16.75781 q -2.14844,-4.375 -7.30469,-4.375 -4.41406,0 -6.28906,3.63281 -1.83594,3.59375 -1.83594,8.82812 z" />
          <path
             id="path135"
             style="font-style:normal;font-variant:normal;font-weight:bold;font-stretch:normal;font-size:80px;line-height:95.6%;font-family:Roboto;-inkscape-font-specification:'Roboto, Bold';font-variant-ligatures:normal;font-variant-caps:normal;font-variant-numeric:normal;font-feature-settings:normal;text-align:start;writing-mode:lr-tb;text-anchor:start;fill:#ffffff"
             d="m 410.47461,219.82609 q 0,-2.96875 -2.10938,-4.88282 -2.10937,-1.91406 -9.02343,-4.10156 -7.77344,-2.5 -13.39844,-6.48437 -5.625,-3.98438 -5.625,-11.36719 0,-7.14844 5.89844,-11.52344 5.89843,-4.375 15.11718,-4.375 9.45313,0 15.15625,4.96094 5.70313,4.92187 5.70313,12.57812 h -11.71875 q 0,-3.59375 -2.30469,-5.89843 -2.30469,-2.30469 -7.03125,-2.30469 -4.60937,0 -6.875,1.95312 -2.22656,1.91407 -2.22656,4.64844 0,2.8125 2.89062,4.6875 2.89063,1.875 8.39844,3.55469 9.33594,2.85156 14.10156,7.14844 4.80469,4.29687 4.80469,11.32812 0,7.46094 -5.625,11.64063 -5.625,4.14062 -15,4.14062 -5.66406,0 -10.9375,-1.99219 -5.27344,-1.99218 -8.67187,-6.13281 -3.39844,-4.14062 -3.39844,-10.58594 h 11.75781 q 0,5.19532 3.08594,7.30469 3.125,2.10938 8.16406,2.10938 4.53125,0 6.67969,-1.83594 2.1875,-1.83594 2.1875,-4.57031 z" />
          <path
             id="path137"
             style="font-style:normal;font-variant:normal;font-weight:bold;font-stretch:normal;font-size:80px;line-height:95.6%;font-family:Roboto;-inkscape-font-specification:'Roboto, Bold';font-variant-ligatures:normal;font-variant-caps:normal;font-variant-numeric:normal;font-feature-settings:normal;text-align:start;writing-mode:lr-tb;text-anchor:start;fill:#ffffff"
             d="m 465.39648,227.87296 q -2.03125,2.89063 -6.17187,5.27344 -4.14063,2.38281 -10.3125,2.38281 -9.88281,0 -15.42969,-5.97656 -5.54687,-6.01563 -5.54687,-14.49219 v -1.52344 q 0,-9.57031 5.3125,-15.70312 5.35156,-6.13281 14.41406,-6.13281 9.10156,0 13.86719,5.70312 4.76562,5.70313 4.76562,15.07813 v 4.80468 h -26.91406 q 0.58594,4.10157 3.24219,6.64063 2.65625,2.5 6.99218,2.5 6.44532,0 10.19532,-4.72656 z m -17.8125,-27.07031 q -3.59375,0 -5.54687,2.42187 -1.95313,2.42188 -2.53906,6.32813 h 15.70312 v -0.85938 q -0.0781,-3.39843 -1.91406,-5.625 -1.79688,-2.26562 -5.70313,-2.26562 z" />
          <path
             id="path139"
             style="font-style:normal;font-variant:normal;font-weight:bold;font-stretch:normal;font-size:80px;line-height:95.6%;font-family:Roboto;-inkscape-font-specification:'Roboto, Bold';font-variant-ligatures:normal;font-variant-caps:normal;font-variant-numeric:normal;font-feature-settings:normal;text-align:start;writing-mode:lr-tb;text-anchor:start;fill:#ffffff"
             d="m 492.38867,202.71671 q -6.36719,0 -8.35937,4.33594 v 27.69531 h -11.32813 v -42.26562 h 10.66406 l 0.35157,5.03906 q 3.32031,-5.82031 9.41406,-5.82031 2.14844,0 3.47656,0.50781 l -0.11719,10.82031 q -0.85937,-0.0781 -2.03125,-0.19531 -1.13281,-0.11719 -2.07031,-0.11719 z" />
          <path
             id="path141"
             style="font-style:normal;font-variant:normal;font-weight:bold;font-stretch:normal;font-size:80px;line-height:95.6%;font-family:Roboto;-inkscape-font-specification:'Roboto, Bold';font-variant-ligatures:normal;font-variant-caps:normal;font-variant-numeric:normal;font-feature-settings:normal;text-align:start;writing-mode:lr-tb;text-anchor:start;fill:#ffffff"
             d="m 538.48242,192.48234 -14.25781,42.26562 h -10.74219 l -14.29687,-42.26562 h 11.83593 l 7.85157,28.39843 7.8125,-28.39843 z" />
          <path
             id="path143"
             style="font-style:normal;font-variant:normal;font-weight:bold;font-stretch:normal;font-size:80px;line-height:95.6%;font-family:Roboto;-inkscape-font-specification:'Roboto, Bold';font-variant-ligatures:normal;font-variant-caps:normal;font-variant-numeric:normal;font-feature-settings:normal;text-align:start;writing-mode:lr-tb;text-anchor:start;fill:#ffffff"
             d="m 543.4043,181.54484 q 0,-2.53907 1.71875,-4.17969 1.71875,-1.67969 4.60937,-1.67969 2.89063,0 4.60938,1.67969 1.71875,1.64062 1.71875,4.17969 0,2.5 -1.71875,4.17968 -1.71875,1.64063 -4.60938,1.64063 -2.89062,0 -4.60937,-1.64063 -1.71875,-1.67968 -1.71875,-4.17968 z m 12.03125,10.9375 v 42.26562 h -11.32813 v -42.26562 z" />
          <path
             id="path145"
             style="font-style:normal;font-variant:normal;font-weight:bold;font-stretch:normal;font-size:80px;line-height:95.6%;font-family:Roboto;-inkscape-font-specification:'Roboto, Bold';font-variant-ligatures:normal;font-variant-caps:normal;font-variant-numeric:normal;font-feature-settings:normal;text-align:start;writing-mode:lr-tb;text-anchor:start;fill:#ffffff"
             d="m 582.31055,226.42765 q 3.08593,0 5.07812,-1.67969 1.99219,-1.71875 2.03125,-4.60937 h 10.625 q -0.0781,6.71875 -5.15625,11.05468 -5.03906,4.33594 -12.38281,4.33594 -9.80469,0 -14.6875,-6.17187 -4.84375,-6.21094 -4.84375,-15.19532 v -1.09375 q 0,-8.94531 4.84375,-15.15625 4.84375,-6.21093 14.64844,-6.21093 7.77343,0 12.61718,4.45312 4.88282,4.45313 4.96094,12.07031 h -10.625 q -0.0391,-3.08593 -1.875,-5.23437 -1.83594,-2.1875 -5.27344,-2.1875 -4.96093,0 -6.48437,3.78906 -1.48438,3.75 -1.48438,8.47656 v 1.09375 q 0,4.88282 1.48438,8.59375 1.52344,3.67188 6.52344,3.67188 z" />
          <path
             id="path147"
             style="font-style:normal;font-variant:normal;font-weight:bold;font-stretch:normal;font-size:80px;line-height:95.6%;font-family:Roboto;-inkscape-font-specification:'Roboto, Bold';font-variant-ligatures:normal;font-variant-caps:normal;font-variant-numeric:normal;font-feature-settings:normal;text-align:start;writing-mode:lr-tb;text-anchor:start;fill:#ffffff"
             d="m 642.42773,227.87296 q -2.03125,2.89063 -6.17187,5.27344 -4.14063,2.38281 -10.3125,2.38281 -9.88281,0 -15.42969,-5.97656 -5.54687,-6.01563 -5.54687,-14.49219 v -1.52344 q 0,-9.57031 5.3125,-15.70312 5.35156,-6.13281 14.41406,-6.13281 9.10156,0 13.86719,5.70312 4.76562,5.70313 4.76562,15.07813 v 4.80468 h -26.91406 q 0.58594,4.10157 3.24219,6.64063 2.65625,2.5 6.99218,2.5 6.44532,0 10.19532,-4.72656 z m -17.8125,-27.07031 q -3.59375,0 -5.54687,2.42187 -1.95313,2.42188 -2.53906,6.32813 h 15.70312 v -0.85938 q -0.0781,-3.39843 -1.91406,-5.625 -1.79688,-2.26562 -5.70313,-2.26562 z" />
        </g>
        <text
           id="text4546"
           y="73.681503"
           x="562.16949"
           style="font-style:normal;font-weight:normal;font-size:40px;line-height:125%;font-family:sans-serif;letter-spacing:0px;word-spacing:0px;fill:#000000;fill-opacity:1;stroke:none;stroke-width:1px;stroke-linecap:butt;stroke-linejoin:miter;stroke-opacity:1"
           xml:space="preserve"><tspan
             y="110.46233"
             x="562.16949"
             id="tspan4544" /><tspan
             id="tspan4548"
             y="160.46233"
             x="562.16949" /></text>
      </g>
    </g>
    <rect
       style="fill:none;stroke:#000000;stroke-width:1.852;stroke-miterlimit:4;stroke-dasharray:5.556, 5.556;stroke-dashoffset:0;stroke-opacity:1;stop-color:#000000"
       id="rect1176-7"
       width="163.07753"
       height="169.05812"
       x="11.989989"
       y="104.58629"
       ry="7.648035" />
    <rect
       style="fill:none;stroke:#000000;stroke-width:1.852;stroke-miterlimit:4;stroke-dasharray:5.556, 5.556;stroke-dashoffset:0;stroke-opacity:1;stop-color:#000000"
       id="rect1176-7-75"
       width="204.65416"
       height="169.05814"
       x="439.10751"
       y="104.58628"
       ry="7.648035" />
    <g
       id="spacing_guides"
       class="st14"
       transform="matrix(0.26458333,0,0,0.26458333,-1.3828309,203.24246)">
      <path
         id="path40_32_"
         sketch:type="MSShapeGroup"
         class="st15"
         d="M -1,0 V 124 H 1267 V 0 Z" />
      <path
         id="path40_31_"
         sketch:type="MSShapeGroup"
         class="st15"
         d="M -1,435 V 559 H 1267 V 435 Z" />
      <path
         id="path40_30_"
         sketch:type="MSShapeGroup"
         class="st15"
         d="m 261.69,434.551 h 62 v -310 h -62 z" />
      <path
         id="path40_29_"
         sketch:type="MSShapeGroup"
         class="st15"
         d="m 462.2,560 h 62 V -1 h -62 z" />
      <text
         transform="translate(256.2529,195)"
         class="st16 st18 st19"
         id="text2569">H: 2.5 x</text>
      <text
         transform="translate(468.4727,282.832)"
         class="st16 st18 st19"
         id="text2571">1/2 x</text>
      <text
         transform="translate(621.2881,500.4978)"
         class="st16 st18 st19"
         id="text2573">1x</text>
      <text
         transform="translate(621.2881,65.4988)"
         class="st16 st18 st19"
         id="text2575">1x</text>
      <path
         id="path40_27_"
         sketch:type="MSShapeGroup"
         class="st15"
         d="M 0,560 H 124 V -1 H 0 Z" />
      <text
         transform="translate(51.2881,282.832)"
         class="st16 st18 st19"
         id="text2578">1x</text>
      <path
         id="path40_3_"
         sketch:type="MSShapeGroup"
         class="st15"
         d="m 1142,560 h 124 V -1 h -124 z" />
      <text
         transform="translate(1191.2881,282.832)"
         class="st16 st18 st19"
         id="text2581">1x</text>
    </g>
    <text
       xml:space="preserve"
       style="font-size:16.9333px;line-height:1.25;font-family:Poppins;-inkscape-font-specification:Poppins;stroke-width:0.264583"
       x="65.452179"
       y="132.11214"
       id="text6606-0"><tspan
         sodipodi:role="line"
         id="tspan6604-6"
         style="font-size:16.9333px;stroke-width:0.264583"
         x="65.452179"
         y="132.11214">:Update:BCI</tspan></text>
    <text
       xml:space="preserve"
       style="font-size:16.9333px;line-height:1.25;font-family:Poppins;-inkscape-font-specification:Poppins;stroke-width:0.264583"
       x="81.93541"
       y="254.93185"
       id="text6606-0-2"><tspan
         sodipodi:role="line"
         id="tspan6604-6-0"
         style="font-size:16.9333px;stroke-width:0.264583"
         x="81.93541"
         y="254.93185">Python</tspan></text>
    <text
       xml:space="preserve"
       style="font-size:16.9333px;line-height:1.25;font-family:Poppins;-inkscape-font-specification:Poppins;stroke-width:0.264583"
       x="514.36218"
       y="178.09552"
       id="text6606-0-2-3"><tspan
         sodipodi:role="line"
         id="tspan6604-6-0-6"
         style="font-size:16.9333px;stroke-width:0.264583"
         x="514.36218"
         y="178.09552">OpenJDK</tspan></text>
    <path
       fill-rule="evenodd"
       clip-rule="evenodd"
       d="m 30.63027,112.46301 h 27.298312 l 1.049996,1.04993 v 27.29839 l -1.049996,1.04992 H 30.63027 l -1.049938,-1.04992 v -27.29839 z m 1.049939,27.29839 H 56.878655 V 114.56294 H 31.680209 Z m 2.09987,-23.09861 h 4.199748 v 20.99869 h -4.199748 z m 12.599234,0 h -4.199747 v 12.59923 h 4.199747 z m 4.199745,0 h 4.199752 v 16.799 h -4.199752 z"
       id="path2-3"
       style="stroke-width:2.09987" />
    <path
       fill-rule="evenodd"
       clip-rule="evenodd"
       d="m 52.662278,160.41847 15.06203,4.01476 1.70564,1.23336 v 17.68604 l -0.97094,1.25954 -16.08534,4.43458 -16.111604,-4.43458 -0.944165,-1.25954 v -17.68604 l 1.600609,-1.23336 15.03575,-4.01476 z m -0.23604,2.62401 -10.49614,2.62411 1.44322,0.52465 9.00046,2.36169 7.87213,-2.12546 2.4928,-0.76068 z m -14.484721,19.31303 13.120251,3.59495 v -15.03585 l -13.120251,-3.5162 z m 15.744261,-11.4409 v 15.03585 l 13.12026,-3.59495 v -15.03584 l -5.30059,1.45115 v 6.73586 l -2.62411,0.68234 v -6.69927 z"
       id="path2-74"
       style="stroke-width:2.62404" />
    <text
       xml:space="preserve"
       style="font-size:16.9333px;line-height:1.25;font-family:Poppins;-inkscape-font-specification:Poppins;stroke-width:0.264583"
       x="81.93541"
       y="178.09552"
       id="text6606-0-2-2"><tspan
         sodipodi:role="line"
         id="tspan6604-6-0-9"
         style="font-size:16.9333px;stroke-width:0.264583"
         x="81.93541"
         y="178.09552">OpenJDK</tspan></text>
    <path
       fill-rule="evenodd"
       clip-rule="evenodd"
       d="m 52.662278,237.2548 15.06203,4.01476 1.70564,1.23336 v 17.68604 l -0.97094,1.25954 -16.08534,4.43458 -16.111604,-4.43458 -0.944165,-1.25954 v -17.68604 l 1.600609,-1.23336 15.03575,-4.01476 z m -0.23604,2.62401 -10.49614,2.62411 1.44322,0.52465 9.00046,2.36169 7.87213,-2.12546 2.4928,-0.76068 z m -14.484721,19.31303 13.120251,3.59495 v -15.03585 l -13.120251,-3.5162 z m 15.744261,-11.4409 v 15.03585 l 13.12026,-3.59495 V 244.156 l -5.30059,1.45115 v 6.73586 l -2.62411,0.68234 v -6.69927 z"
       id="path2-74-1"
       style="stroke-width:2.62404" />
    <text
       xml:space="preserve"
       style="font-size:16.9333px;line-height:1.25;font-family:Poppins;-inkscape-font-specification:Poppins;stroke-width:0.264583"
       x="515.48248"
       y="254.93185"
       id="text6606-0-2-27"><tspan
         sodipodi:role="line"
         id="tspan6604-6-0-0"
         style="font-size:16.9333px;stroke-width:0.264583"
         x="515.48248"
         y="254.93185">Python</tspan></text>
    <path
       fill-rule="evenodd"
       clip-rule="evenodd"
       d="m 486.20936,237.2548 15.06203,4.01476 1.70564,1.23336 v 17.68604 l -0.97094,1.25954 -16.08534,4.43458 -16.1116,-4.43458 -0.94417,-1.25954 v -17.68604 l 1.60061,-1.23336 15.03575,-4.01476 z m -0.23604,2.62401 -10.49614,2.62411 1.44322,0.52465 9.00046,2.36169 7.87213,-2.12546 2.4928,-0.76068 z m -14.48472,19.31303 13.12025,3.59495 v -15.03585 l -13.12025,-3.5162 z m 15.74426,-11.4409 v 15.03585 l 13.12026,-3.59495 V 244.156 l -5.30059,1.45115 v 6.73586 l -2.62411,0.68234 v -6.69927 z"
       id="path2-74-1-9"
       style="stroke-width:2.62404" />
    <text
       xml:space="preserve"
       style="font-size:16.9333px;line-height:1.25;font-family:Poppins;-inkscape-font-specification:Poppins;stroke-width:0.264583"
       x="81.93541"
       y="217.19739"
       id="text6606-0-2-5"><tspan
         sodipodi:role="line"
         id="tspan6604-6-0-25"
         style="font-size:16.9333px;stroke-width:0.264583"
         x="81.93541"
         y="217.19739">.Net</tspan></text>
    <text
       xml:space="preserve"
       style="font-size:16.9333px;line-height:1.25;font-family:Poppins;-inkscape-font-specification:Poppins;stroke-width:0.264583"
       x="515.52368"
       y="217.19739"
       id="text6606-0-2-5-7"><tspan
         sodipodi:role="line"
         id="tspan6604-6-0-25-5"
         style="font-size:16.9333px;stroke-width:0.264583"
         x="515.52368"
         y="217.19739">.Net</tspan></text>
    <path
       fill-rule="evenodd"
       clip-rule="evenodd"
       d="m 52.662278,199.52061 15.06203,4.01476 1.70564,1.23336 v 17.68604 l -0.97094,1.25954 -16.08534,4.43458 -16.111604,-4.43458 -0.944165,-1.25954 v -17.68604 l 1.600609,-1.23336 15.03575,-4.01476 z m -0.23604,2.62401 -10.49614,2.62411 1.44322,0.52465 9.00046,2.36169 7.87213,-2.12546 2.4928,-0.76068 z m -14.484721,19.31303 13.120251,3.59495 v -15.03585 l -13.120251,-3.5162 z m 15.744261,-11.4409 v 15.03585 l 13.12026,-3.59495 v -15.03584 l -5.30059,1.45115 v 6.73586 l -2.62411,0.68234 v -6.69927 z"
       id="path2-74-4"
       style="stroke-width:2.62404" />
    <path
       fill-rule="evenodd"
       clip-rule="evenodd"
       d="m 486.10123,160.41846 15.06203,4.01476 1.70564,1.23336 v 17.68604 l -0.97094,1.25954 -16.08534,4.43458 -16.1116,-4.43458 -0.94417,-1.25954 v -17.68604 l 1.60061,-1.23336 15.03575,-4.01476 z m -0.23604,2.62401 -10.49614,2.62411 1.44322,0.52465 9.00046,2.36169 7.87213,-2.12546 2.4928,-0.76068 z m -14.48472,19.31303 13.12025,3.59495 V 170.9146 l -13.12025,-3.5162 z m 15.74426,-11.4409 v 15.03585 l 13.12026,-3.59495 v -15.03584 l -5.30059,1.45115 v 6.73586 l -2.62411,0.68234 v -6.69927 z"
       id="path2-74-8-7"
       style="stroke-width:2.62404" />
    <path
       fill-rule="evenodd"
       clip-rule="evenodd"
       d="m 486.10123,199.5206 15.06203,4.01476 1.70564,1.23336 v 17.68604 l -0.97094,1.25954 -16.08534,4.43458 -16.1116,-4.43458 -0.94417,-1.25954 v -17.68604 l 1.60061,-1.23336 15.03575,-4.01476 z m -0.23604,2.62401 -10.49614,2.62411 1.44322,0.52465 9.00046,2.36169 7.87213,-2.12546 2.4928,-0.76068 z m -14.48472,19.31303 13.12025,3.59495 v -15.03585 l -13.12025,-3.5162 z m 15.74426,-11.4409 v 15.03585 l 13.12026,-3.59495 V 206.4218 l -5.30059,1.45115 v 6.73586 l -2.62411,0.68234 v -6.69927 z"
       id="path2-74-4-8-1"
       style="stroke-width:2.62404" />
    <text
       xml:space="preserve"
       style="font-style:normal;font-weight:normal;font-size:10.5833px;line-height:1.25;font-family:sans-serif;fill:#000000;fill-opacity:1;stroke:none;stroke-width:0.264583"
       x="335.03513"
       y="173.42191"
       id="text7279"><tspan
         sodipodi:role="line"
         id="tspan7277"
         style="stroke-width:0.264583"
         x="335.03513"
         y="173.42191" /></text>
    <text
       xml:space="preserve"
       style="font-style:normal;font-weight:normal;font-size:16.9333px;line-height:1.25;font-family:sans-serif;fill:#000000;fill-opacity:1;stroke:none;stroke-width:0.264583"
       x="472.43661"
       y="130.83369"
       id="text15581"><tspan
         sodipodi:role="line"
         id="tspan15579"
         style="font-style:normal;font-variant:normal;font-weight:normal;font-stretch:normal;font-size:16.9333px;font-family:Poppins;-inkscape-font-specification:Poppins;stroke-width:0.264583"
         x="472.43661"
         y="130.83369">registry.suse.com</tspan></text>
    <path
       d="m 409.38476,177.52991 v 2.68582 h -32.23034 v -2.68582 h 5.37171 v -1.34297 a 2.6937977,2.6937977 0 0 1 -2.68588,-2.68583 v -13.42933 a 2.693744,2.693744 0 0 1 2.68588,-2.68583 h 2.681 v 2.68583 h -2.681 v 13.42933 H 404.013 v -13.42933 h -2.69075 v -2.68583 h 2.69075 a 2.6936903,2.6936903 0 0 1 2.68588,2.68583 l -0.0152,13.42933 a 2.6822485,2.6822485 0 0 1 -2.67243,2.68583 v 1.34297 z m -12.08638,-8.07464 -4.02879,-4.02879 -4.02879,4.02879 h 2.68583 v 2.69928 h 2.68587 v -2.69928 z m 1.33622,-10.73113 a 5.3717219,5.3717219 0 1 1 -5.37176,-5.3717 5.3736694,5.3736694 0 0 1 5.37176,5.3717 z m -5.90892,3.97453 v -0.75155 a 1.0774734,1.0774734 0 0 1 -1.07436,-1.07436 v -0.53715 l -2.34332,-2.34327 a 3.9719856,3.9719856 0 0 0 3.41768,4.70633 z m 3.57006,-1.35154 a 3.9973266,3.9973266 0 0 0 -1.43458,-6.3177 1.0707588,1.0707588 0 0 1 -1.06106,1.00883 h -1.07442 v 1.07437 a 0.53879716,0.53879716 0 0 1 -0.53715,0.53715 h -1.07436 v 1.07436 h 3.22303 a 0.53874341,0.53874341 0 0 1 0.53716,0.53716 v 1.61151 h 0.5372 a 1.0563088,1.0563088 0 0 1 0.88413,0.47458 z"
       id="path2-36"
       style="stroke-width:1.34293" />
    <path
       style="fill:none;stroke:#000000;stroke-width:1.32292;stroke-linecap:butt;stroke-linejoin:miter;stroke-dasharray:none;stroke-opacity:1;marker-end:url(#Arrow1L)"
       d="m 179.57671,190.63464 h 43.97637"
       id="path10593"
       sodipodi:nodetypes="cc" />
    <path
       style="fill:none;stroke:#000000;stroke-width:1.32292;stroke-linecap:butt;stroke-linejoin:miter;stroke-dasharray:none;stroke-opacity:1;marker-end:url(#Arrow1L-3)"
       d="m 349.35383,190.63464 78.60489,0"
       id="path10593-6"
       sodipodi:nodetypes="cc" />
    <text
       xml:space="preserve"
       style="font-size:22.5778px;line-height:1.25;font-family:Poppins;-inkscape-font-specification:Poppins;stroke-width:0.264583"
       x="270.97534"
       y="197.84584"
       id="text12547"><tspan
         sodipodi:role="line"
         id="tspan12545"
         style="font-size:22.5778px;stroke-width:0.264583"
         x="270.97534"
         y="197.84584">QA</tspan></text>
    <rect
       style="fill:none;stroke:#000000;stroke-width:1.85208;stroke-dasharray:5.55623996,5.55623996;stroke-dashoffset:0;stroke-opacity:1;stop-color:#000000"
       id="rect12601"
       width="109.78584"
       height="51.678501"
       x="234.77574"
       y="165.27699"
       ry="5.9792161" />
    <g
       id="g15457"
       transform="matrix(0.36722663,0,0,0.36722663,485.69075,8.6818594)">
	<path
   class="st0"
   d="m 86.4,66.4 c 0,3.7 0.4,6.7 1.1,8.9 0.8,2.2 1.8,4.6 3.2,7.2 0.5,0.8 0.7,1.6 0.7,2.3 0,1 -0.6,2 -1.9,3 L 83.2,92 c -0.9,0.6 -1.8,0.9 -2.6,0.9 -1,0 -2,-0.5 -3,-1.4 C 76.2,90 75,88.4 74,86.8 73,85.1 72,83.2 70.9,80.9 63.1,90.1 53.3,94.7 41.5,94.7 c -8.4,0 -15.1,-2.4 -20,-7.2 -4.9,-4.8 -7.4,-11.2 -7.4,-19.2 0,-8.5 3,-15.4 9.1,-20.6 6.1,-5.2 14.2,-7.8 24.5,-7.8 3.4,0 6.9,0.3 10.6,0.8 3.7,0.5 7.5,1.3 11.5,2.2 V 35.6 C 69.8,28 68.2,22.7 65.1,19.6 61.9,16.5 56.5,15 48.8,15 c -3.5,0 -7.1,0.4 -10.8,1.3 -3.7,0.9 -7.3,2 -10.8,3.4 -1.6,0.7 -2.8,1.1 -3.5,1.3 -0.7,0.2 -1.2,0.3 -1.6,0.3 -1.4,0 -2.1,-1 -2.1,-3.1 V 13.3 C 20,11.7 20.2,10.5 20.7,9.8 21.2,9.1 22.1,8.4 23.5,7.7 27,5.9 31.2,4.4 36.1,3.2 41,1.9 46.2,1.3 51.7,1.3 63.6,1.3 72.3,4 77.9,9.4 83.4,14.8 86.2,23 86.2,34 V 66.4 Z M 45.8,81.6 c 3.3,0 6.7,-0.6 10.3,-1.8 3.6,-1.2 6.8,-3.4 9.5,-6.4 1.6,-1.9 2.8,-4 3.4,-6.4 0.6,-2.4 1,-5.3 1,-8.7 v -4.2 c -2.9,-0.7 -6,-1.3 -9.2,-1.7 -3.2,-0.4 -6.3,-0.6 -9.4,-0.6 -6.7,0 -11.6,1.3 -14.9,4 -3.3,2.7 -4.9,6.5 -4.9,11.5 0,4.7 1.2,8.2 3.7,10.6 2.4,2.5 5.9,3.7 10.5,3.7 z m 80.3,10.8 c -1.8,0 -3,-0.3 -3.8,-1 -0.8,-0.6 -1.5,-2 -2.1,-3.9 L 96.7,10.2 c -0.6,-2 -0.9,-3.3 -0.9,-4 0,-1.6 0.8,-2.5 2.4,-2.5 h 9.8 c 1.9,0 3.2,0.3 3.9,1 0.8,0.6 1.4,2 2,3.9 l 16.8,66.2 15.6,-66.2 c 0.5,-2 1.1,-3.3 1.9,-3.9 0.8,-0.6 2.2,-1 4,-1 h 8 c 1.9,0 3.2,0.3 4,1 0.8,0.6 1.5,2 1.9,3.9 l 15.8,67 17.3,-67 c 0.6,-2 1.3,-3.3 2,-3.9 0.8,-0.6 2.1,-1 3.9,-1 h 9.3 c 1.6,0 2.5,0.8 2.5,2.5 0,0.5 -0.1,1 -0.2,1.6 -0.1,0.6 -0.3,1.4 -0.7,2.5 l -24.1,77.3 c -0.6,2 -1.3,3.3 -2.1,3.9 -0.8,0.6 -2.1,1 -3.8,1 h -8.6 c -1.9,0 -3.2,-0.3 -4,-1 -0.8,-0.7 -1.5,-2 -1.9,-4 L 156,23 140.6,87.4 c -0.5,2 -1.1,3.3 -1.9,4 -0.8,0.7 -2.2,1 -4,1 z m 128.5,2.7 c -5.2,0 -10.4,-0.6 -15.4,-1.8 -5,-1.2 -8.9,-2.5 -11.5,-4 -1.6,-0.9 -2.7,-1.9 -3.1,-2.8 -0.4,-0.9 -0.6,-1.9 -0.6,-2.8 v -5.1 c 0,-2.1 0.8,-3.1 2.3,-3.1 0.6,0 1.2,0.1 1.8,0.3 0.6,0.2 1.5,0.6 2.5,1 3.4,1.5 7.1,2.7 11,3.5 4,0.8 7.9,1.2 11.9,1.2 6.3,0 11.2,-1.1 14.6,-3.3 3.4,-2.2 5.2,-5.4 5.2,-9.5 0,-2.8 -0.9,-5.1 -2.7,-7 -1.8,-1.9 -5.2,-3.6 -10.1,-5.2 L 246,52 c -7.3,-2.3 -12.7,-5.7 -16,-10.2 -3.3,-4.4 -5,-9.3 -5,-14.5 0,-4.2 0.9,-7.9 2.7,-11.1 1.8,-3.2 4.2,-6 7.2,-8.2 3,-2.3 6.4,-4 10.4,-5.2 4,-1.2 8.2,-1.7 12.6,-1.7 2.2,0 4.5,0.1 6.7,0.4 2.3,0.3 4.4,0.7 6.5,1.1 2,0.5 3.9,1 5.7,1.6 1.8,0.6 3.2,1.2 4.2,1.8 1.4,0.8 2.4,1.6 3,2.5 0.6,0.8 0.9,1.9 0.9,3.3 v 4.7 c 0,2.1 -0.8,3.2 -2.3,3.2 -0.8,0 -2.1,-0.4 -3.8,-1.2 -5.7,-2.6 -12.1,-3.9 -19.2,-3.9 -5.7,0 -10.2,0.9 -13.3,2.8 -3.1,1.9 -4.7,4.8 -4.7,8.9 0,2.8 1,5.2 3,7.1 2,1.9 5.7,3.8 11,5.5 l 14.2,4.5 c 7.2,2.3 12.4,5.5 15.5,9.6 3.1,4.1 4.6,8.8 4.6,14 0,4.3 -0.9,8.2 -2.6,11.6 -1.8,3.4 -4.2,6.4 -7.3,8.8 -3.1,2.5 -6.8,4.3 -11.1,5.6 -4.5,1.4 -9.2,2.1 -14.3,2.1 z"
   id="path15449"
   style="fill:#252f3e" />

	<g
   id="g15455">
		<path
   class="st1"
   d="M 273.5,143.7 C 240.6,168 192.8,180.9 151.7,180.9 94.1,180.9 42.2,159.6 3,124.2 c -3.1,-2.8 -0.3,-6.6 3.4,-4.4 42.4,24.6 94.7,39.5 148.8,39.5 36.5,0 76.6,-7.6 113.5,-23.2 5.5,-2.5 10.2,3.6 4.8,7.6 z"
   id="path15451"
   style="clip-rule:evenodd;fill:#ff9900;fill-rule:evenodd" />

		<path
   class="st1"
   d="m 287.2,128.1 c -4.2,-5.4 -27.8,-2.6 -38.5,-1.3 -3.2,0.4 -3.7,-2.4 -0.8,-4.5 18.8,-13.2 49.7,-9.4 53.3,-5 3.6,4.5 -1,35.4 -18.6,50.2 -2.7,2.3 -5.3,1.1 -4.1,-1.9 4,-9.9 12.9,-32.2 8.7,-37.5 z"
   id="path15453"
   style="clip-rule:evenodd;fill:#ff9900;fill-rule:evenodd" />

	</g>

</g>
  </g>
  <style
     type="text/css"
     id="style1092">
	.st0{fill:#737373;}
	.st1{fill:#F25022;}
	.st2{fill:#7FBA00;}
	.st3{fill:#00A4EF;}
	.st4{fill:#FFB900;}
</style>
  <style
     type="text/css"
     id="style2536">
	.st0{fill:#FAFAFA;}
	.st1{fill:#F0F0F0;}
	.st2{fill:#FFFFFF;}
	.st3{fill:#E24329;}
	.st4{fill:#FCA326;}
	.st5{fill:#FC6D26;}
	.st6{fill:#8C929D;}
	.st7{fill:#2E2E2E;}
	.st8{fill:none;stroke:#FCA326;stroke-width:16;stroke-linecap:round;stroke-linejoin:round;stroke-miterlimit:10;}
	.st9{fill:none;stroke:#FC6D26;stroke-width:16;stroke-linecap:round;stroke-linejoin:round;stroke-miterlimit:10;}
	.st10{fill:none;stroke:#E24329;stroke-width:16;stroke-linecap:round;stroke-linejoin:round;stroke-miterlimit:10;}
	.st11{fill:none;stroke:#F0F0F0;stroke-miterlimit:10;}
	.st12{fill:#231F20;}
	.st13{fill:none;stroke:#231F20;stroke-width:16;stroke-linecap:round;stroke-linejoin:round;stroke-miterlimit:10;}
	.st14{display:none;}
	.st15{display:inline;opacity:0.1;fill:#E828E3;}
	.st16{display:inline;}
	.st17{opacity:0.1;fill:#E828E3;}
	.st18{font-family:'SourceSansPro-Semibold';}
	.st19{font-size:24px;}
	.st20{display:inline;fill:#DB3B21;}
	.st21{display:inline;fill:#FC6D26;}
	.st22{display:inline;fill:#2E2E2E;}
	.st23{display:inline;fill:#6E49CB;}
	.st24{display:inline;fill:#380D75;}
	.st25{display:inline;fill:#FCA121;}
	.st26{opacity:0.6;fill:none;stroke:#231F20;stroke-width:2;stroke-miterlimit:10;stroke-dasharray:12,6;}
	.st27{fill:none;stroke:#444444;stroke-width:1.5339;stroke-miterlimit:10;}
</style>
</svg>
